<?xml version="1.0" encoding="utf-8"?>
<!-- Generated by IcoMoon.io -->
<svg version="1.1" xmlns="http://www.w3.org/2000/svg" xmlns:xlink="http://www.w3.org/1999/xlink" width="2016" height="224" viewBox="0 0 2016 224">
<svg id="icon-Redo" width="32" height="32" viewBox="0 0 32 32" x="0" y="0">
<path d="M10.909 8.727h16.073l-5.455-5.455 1.745-1.818 8.727 8.727-8.727 8.727-1.818-1.818 5.455-5.455h-16.727c-1.6 0-2.836 0.364-3.273 0.582-2.691 1.455-4.436 4.218-4.436 7.418s1.818 6.036 4.436 7.418c0.436 0.218 1.673 0.582 3.273 0.582h17.454v2.909h-16.727c-6.036 0-10.909-4.873-10.909-10.909s4.873-10.909 10.909-10.909z"></path>
</svg>
<svg id="icon-Undo" width="32" height="32" viewBox="0 0 32 32" x="64" y="0">
<path d="M21.091 8.727h-16.073l5.455-5.455-1.745-1.818-8.727 8.727 8.727 8.727 1.818-1.818-5.455-5.455h16.727c1.6 0 2.836 0.364 3.273 0.582 2.691 1.455 4.436 4.218 4.436 7.418s-1.818 6.036-4.436 7.418c-0.436 0.218-1.673 0.582-3.273 0.582h-17.454v2.909h16.727c6.036 0 10.909-4.873 10.909-10.909s-4.873-10.909-10.909-10.909z"></path>
</svg>
<svg id="icon-CaretLeft" width="32" height="32" viewBox="0 0 32 32" x="128" y="0">
<path d="M22.52 4.371l-1.512-1.309-10.961 12.654 10.961 12.654 1.512-1.309-9.826-11.346z"></path>
</svg>
<svg id="icon-CaretUp" width="32" height="32" viewBox="0 0 32 32" x="192" y="0">
<path d="M27.629 21.953l1.309-1.512-12.654-10.961-12.654 10.961 1.309 1.512 11.346-9.826z"></path>
</svg>
<svg id="icon-CaretRight" width="32" height="32" viewBox="0 0 32 32" x="256" y="0">
<path d="M10.047 27.062l1.512 1.309 10.961-12.654-10.961-12.654-1.512 1.309 9.826 11.346z"></path>
</svg>
<svg id="icon-CaretDown" width="32" height="32" viewBox="0 0 32 32" x="320" y="0">
<path d="M4.938 9.48l-1.309 1.512 12.654 10.961 12.654-10.961-1.309-1.512-11.346 9.826z"></path>
</svg>
<svg id="icon-ArrowLeft" width="32" height="32" viewBox="0 0 32 32" x="384" y="0">
<path d="M21.197 3.716l-10.395 12 10.395 12z"></path>
</svg>
<svg id="icon-ArrowUp" width="32" height="32" viewBox="0 0 32 32" x="448" y="0">
<path d="M28 20.914l-12-10.395-12 10.395z"></path>
</svg>
<svg id="icon-ArrowRight" width="32" height="32" viewBox="0 0 32 32" x="512" y="0">
<path d="M10.803 27.716l10.395-12-10.395-12z"></path>
</svg>
<svg id="icon-ArrowDown" width="32" height="32" viewBox="0 0 32 32" x="576" y="0">
<path d="M4 10.519l12 10.395 12-10.395z"></path>
</svg>
<svg id="icon-MoveLeft" width="32" height="32" viewBox="0 0 32 32" x="640" y="0">
<path d="M30.25 0.341l-29.641 15.658 29.641 15.66zM28.25 3.659v24.682l-23.359-12.34z"></path>
</svg>
<svg id="icon-MoveUp" width="32" height="32" viewBox="0 0 32 32" x="704" y="0">
<path d="M16 0.609l-15.66 29.641h31.32l-0.775-1.467zM16 4.892l12.34 23.357h-24.68z"></path>
</svg>
<svg id="icon-MoveRight" width="32" height="32" viewBox="0 0 32 32" x="768" y="0">
<path d="M1.75 0.341v31.318l29.641-15.66zM3.75 3.659l23.359 12.342-23.359 12.34z"></path>
</svg>
<svg id="icon-MoveDown" width="32" height="32" viewBox="0 0 32 32" x="832" y="0">
<path d="M0.34 1.749l0.775 1.469 14.885 28.174 15.66-29.643zM3.66 3.749h24.68l-12.34 23.359z"></path>
</svg>
<svg id="icon-ToLeft" width="32" height="32" viewBox="0 0 32 32" x="896" y="0">
<path d="M30.75 0.341l-29.641 15.658 29.641 15.66zM28.75 3.659v24.682l-23.359-12.34zM1.25 1.999v28h2v-28z"></path>
</svg>
<svg id="icon-ToTop" width="32" height="32" viewBox="0 0 32 32" x="960" y="0">
<path d="M16 1.109l-15.66 29.641h31.32l-0.775-1.467zM16 5.392l12.34 23.357h-24.68zM2 1.249v2h28v-2z"></path>
</svg>
<svg id="icon-ToRight" width="32" height="32" viewBox="0 0 32 32" x="1024" y="0">
<path d="M1.25 0.341v31.318l29.641-15.66zM3.25 3.659l23.359 12.342-23.359 12.34zM28.75 1.999v28h2v-28z"></path>
</svg>
<svg id="icon-ToBottom" width="32" height="32" viewBox="0 0 32 32" x="1088" y="0">
<path d="M0.34 1.249l0.775 1.469 14.885 28.174 15.66-29.643zM3.66 3.249h24.68l-12.34 23.359zM2 28.749v2h28v-2z"></path>
</svg>
<svg id="icon-Stop" width="32" height="32" viewBox="0 0 32 32" x="1152" y="0">
<path d="M0 32h32v-32h-32v32zM2.899 2.899h26.087v26.087h-26.087v-26.087z"></path>
</svg>
<svg id="icon-Pause" width="32" height="32" viewBox="0 0 32 32" x="1216" y="0">
<path d="M8.857 5.019v21.838h2v-21.838zM21.143 5.144v21.838h2v-21.838z"></path>
</svg>
<svg id="icon-Play" width="32" height="32" viewBox="0 0 32 32" x="1280" y="0">
<path d="M2.155 0v32l27.69-16.046-27.69-15.954zM4.539 4.034l20.63 11.92-20.63 11.92v-23.839z"></path>
</svg>
<svg id="icon-DoubleCaretV" width="32" height="32" viewBox="0 0 32 32" x="1344" y="0">
<path d="M4.654 19.243l-1.309 1.512 12.654 10.963 12.654-10.963-1.309-1.512-11.346 9.828zM16 0.282l-12.654 10.961 1.309 1.512 11.346-9.826 11.346 9.826 1.309-1.512z"></path>
</svg>
<svg id="icon-DoubleCaretVI" width="32" height="32" viewBox="0 0 32 32" x="1408" y="0">
<path d="M4.668 0.214l-1.336 1.488 12.668 11.348 12.668-11.348-1.336-1.488-11.332 10.15zM16 18.95l-12.668 11.346 1.336 1.49 11.332-10.15 11.332 10.15 1.336-1.49z"></path>
</svg>
<svg id="icon-DoubleCaretH" width="32" height="32" viewBox="0 0 32 32" x="1472" y="0">
<path d="M12.758 4.654l-1.512-1.309-10.963 12.654 10.963 12.654 1.512-1.309-9.828-11.346zM31.718 15.999l-10.961-12.654-1.512 1.309 9.826 11.346-9.826 11.346 1.512 1.309z"></path>
</svg>
<svg id="icon-DoubleCaretHI" width="32" height="32" viewBox="0 0 32 32" x="1536" y="0">
<path d="M31.786 4.668l-1.488-1.336-11.348 12.668 11.348 12.668 1.488-1.336-10.15-11.332zM13.050 16l-11.346-12.668-1.49 1.336 10.15 11.332-10.15 11.332 1.49 1.336z"></path>
</svg>
<svg id="icon-Close" width="32" height="32" viewBox="0 0 32 32" x="1600" y="0">
<path d="M2.863 1.862c-0.001 0-0.001 0-0.002 0-0.552 0-1 0.448-1 1 0 0.282 0.117 0.537 0.304 0.718l26.254 26.248c0.182 0.189 0.438 0.307 0.721 0.307 0.552 0 1-0.448 1-1 0-0.283-0.118-0.539-0.307-0.721l-26.254-26.25c-0.182-0.187-0.436-0.303-0.717-0.303v0zM29.107 1.866c-0.27 0.008-0.512 0.123-0.687 0.302l-26.25 26.25c-0.189 0.182-0.307 0.438-0.307 0.721 0 0.552 0.448 1 1 1 0.283 0 0.539-0.118 0.721-0.307l26.25-26.25c0.187-0.182 0.303-0.436 0.303-0.717 0-0.552-0.448-1-1-1-0.010 0-0.021 0-0.031 0h0.002z"></path>
</svg>
<svg id="icon-Check" width="32" height="32" viewBox="0 0 32 32" x="1664" y="0">
<path d="M3.515 17.665l9.155 9.155 19.143-19.143-1.665-1.665-17.478 17.478-7.491-7.491z"></path>
</svg>
<svg id="icon-Plus" width="32" height="32" viewBox="0 0 32 32" x="1728" y="0">
<path d="M15.068 3.866v24.268h1.863v-24.268zM3.867 15.069v1.861h24.266v-1.861z"></path>
</svg>
<svg id="icon-Minus" width="32" height="32" viewBox="0 0 32 32" x="1792" y="0">
<path d="M3.867 14.999v2h24.266v-2z"></path>
</svg>
<svg id="icon-DrawPoint" width="32" height="32" viewBox="0 0 32 32" x="1856" y="0">
<path d="M22.455 8.293l-14.162 14.162 1.252 1.252 14.162-14.162zM9.545 8.293l-1.252 1.252 14.162 14.162 1.252-1.252z"></path>
</svg>
<svg id="icon-Forbidden" width="32" height="32" viewBox="0 0 32 32" x="1920" y="0">
<path d="M16 32c8.861 0 16-7.138 16-16s-7.138-16-16-16c-8.861 0-16 7.138-16 16s7.138 16 16 16zM16 1.231c8.123 0 14.769 6.646 14.769 14.769s-6.646 14.769-14.769 14.769c-8.123 0-14.769-6.646-14.769-14.769s6.646-14.769 14.769-14.769zM5.384 4.421c-0.001 0-0.001 0-0.002 0-0.438 0-0.794 0.364-0.794 0.813 0 0.229 0.093 0.437 0.241 0.584l20.833 21.34c0.144 0.154 0.348 0.25 0.572 0.25 0.438 0 0.794-0.364 0.794-0.813 0-0.23-0.094-0.438-0.244-0.586l-20.833-21.341c-0.144-0.152-0.346-0.246-0.569-0.246v0zM26.21 4.424c-0.214 0.006-0.406 0.1-0.545 0.246l-20.83 21.341c-0.15 0.148-0.244 0.356-0.244 0.586 0 0.449 0.356 0.813 0.794 0.813 0.225 0 0.428-0.096 0.572-0.25l20.83-21.341c0.148-0.148 0.24-0.354 0.24-0.583 0-0.449-0.355-0.813-0.794-0.813-0.008 0-0.017 0-0.025 0h0.002z"></path>
</svg>
<svg id="icon-OK" width="32" height="32" viewBox="0 0 32 32" x="1984" y="0">
<path d="M9.846 16l-0.947 0.947 5.207 5.207 10.887-10.887-0.947-0.947-9.941 9.941zM16 31.384c8.521 0 15.384-6.864 15.384-15.384s-6.864-15.384-15.384-15.384c-8.521 0-15.384 6.864-15.384 15.384s6.864 15.384 15.384 15.384zM16 1.799c7.811 0 14.201 6.391 14.201 14.201s-6.39 14.201-14.201 14.201c-7.811 0-14.201-6.39-14.201-14.201s6.39-14.201 14.201-14.201z"></path>
</svg>
<svg id="icon-Info" width="32" height="32" viewBox="0 0 32 32" x="0" y="64">
<path d="M16 31.385c8.521 0 15.385-6.864 15.385-15.385s-6.864-15.385-15.385-15.385c-8.521 0-15.385 6.864-15.385 15.385s6.864 15.385 15.385 15.385zM16 1.799c7.811 0 14.201 6.391 14.201 14.201s-6.391 14.201-14.201 14.201c-7.811 0-14.201-6.391-14.201-14.201s6.391-14.201 14.201-14.201zM17.183 8.899c0 0.654-0.53 1.183-1.183 1.183s-1.183-0.53-1.183-1.183c0-0.654 0.53-1.183 1.183-1.183s1.183 0.53 1.183 1.183zM14.817 12.45h2.367v10.651h-2.367v-10.651zM17.183 20.734h2.367v2.367h-2.367v-2.367zM12.45 12.45h2.367v2.367h-2.367v-2.367z"></path>
</svg>
<svg id="icon-Error" width="32" height="32" viewBox="0 0 32 32" x="64" y="64">
<path d="M17.312 24.228h-2.623v-2.503h2.623v2.503zM16.477 20.056h-1.073l-0.596-7.272v-5.126h2.146v5.126l-0.477 7.272zM16 31.5c8.585 0 15.5-6.914 15.5-15.497s-6.915-15.497-15.5-15.497c-8.585 0-15.5 6.914-15.5 15.497s6.915 15.497 15.5 15.497zM16 1.698c7.869 0 14.308 6.437 14.308 14.305s-6.438 14.305-14.308 14.305c-7.869 0-14.308-6.437-14.308-14.305s6.438-14.305 14.308-14.305z"></path>
</svg>
<svg id="icon-Unknown" width="32" height="32" viewBox="0 0 32 32" x="128" y="64">
<path d="M16 0.317c8.643 0 15.696 7.059 15.68 15.69-0.016 8.662-7.059 15.699-15.69 15.677-8.656-0.022-15.658-7.027-15.67-15.68-0.013-8.634 7.037-15.686 15.68-15.686zM30.198 15.997c0-7.821-6.336-14.176-14.192-14.192-7.83-0.016-14.195 6.339-14.205 14.192-0.010 7.821 6.346 14.173 14.189 14.195 7.811 0.022 14.211-6.368 14.208-14.195zM16.874 21.066c-0.669 0-1.322 0-1.99 0 0-0.397-0.022-0.787 0.003-1.174 0.051-0.781 0.234-1.533 0.64-2.214 0.317-0.531 0.723-0.989 1.174-1.408 0.56-0.522 1.123-1.037 1.674-1.571 0.323-0.314 0.608-0.666 0.758-1.101 0.358-1.046 0.128-1.978-0.566-2.81-1.155-1.379-3.085-1.427-4.269-0.736-0.746 0.435-1.194 1.101-1.453 1.904-0.118 0.358-0.198 0.73-0.304 1.123-0.688-0.080-1.392-0.166-2.122-0.253 0.029-0.182 0.048-0.352 0.080-0.522 0.182-0.947 0.509-1.83 1.13-2.586 0.752-0.922 1.734-1.459 2.89-1.68 1.206-0.23 2.41-0.208 3.584 0.176 1.501 0.486 2.611 1.44 3.117 2.957 0.483 1.456 0.246 2.832-0.707 4.064-0.605 0.781-1.357 1.414-2.064 2.093-0.31 0.298-0.627 0.598-0.896 0.934-0.4 0.496-0.554 1.098-0.602 1.725-0.035 0.349-0.051 0.704-0.077 1.078zM14.752 25.28c0-0.787 0-1.565 0-2.358 0.787 0 1.568 0 2.358 0 0 0.784 0 1.565 0 2.358-0.781 0-1.565 0-2.358 0z"></path>
</svg>
<svg id="icon-Warning" width="32" height="32" viewBox="0 0 32 32" x="192" y="64">
<path d="M17.282 26.66h-2.563v-2.447h2.563v2.447zM16.466 22.582h-1.049l-0.582-7.107v-5.010h2.097v5.010l-0.466 7.107zM2.020 28.98c-0.004 0-0.009 0-0.014 0-0.552 0-1 0.448-1 1s0.448 1 1 1c0.005 0 0.010 0 0.015 0h27.96c0.004 0 0.009 0 0.014 0 0.552 0 1-0.448 1-1s-0.448-1-1-1c-0.005 0-0.010 0-0.015 0h0.001zM16.895 1.573l-1.789 0.895 13.98 27.959 1.789-0.895zM15.955 1.009c-0.374 0.020-0.692 0.242-0.847 0.559l-13.983 27.965c-0.067 0.13-0.106 0.284-0.106 0.447 0 0.552 0.448 1 1 1 0.389 0 0.727-0.222 0.892-0.547l13.983-27.965c0.071-0.134 0.112-0.292 0.112-0.46 0-0.552-0.448-1-1-1-0.018 0-0.036 0-0.054 0.001h0.002z"></path>
</svg>
<svg id="icon-Text" width="32" height="32" viewBox="0 0 32 32" x="256" y="64">
<path d="M7.273 11.636h1.455c0 0 0-2.909 1.455-2.909s4.364 0 4.364 0v13.091c0 0 0 1.455-1.455 1.455s-1.455 0-1.455 0v1.455h8.727v-1.455c0 0 0 0-1.455 0s-1.455-1.455-1.455-1.455v-13.091c0 0 2.909 0 4.364 0s1.455 2.909 1.455 2.909h1.455v-4.364h-17.454v4.364z"></path>
</svg>
<svg id="icon-DrawText" width="32" height="32" viewBox="0 0 32 32" x="320" y="64">
<path d="M7.273 11.636h1.455c0 0 0-2.909 1.455-2.909s4.364 0 4.364 0v13.091c0 0 0 1.455-1.455 1.455s-1.455 0-1.455 0v1.455h8.727v-1.455c0 0 0 0-1.455 0s-1.455-1.455-1.455-1.455v-13.091c0 0 2.909 0 4.364 0s1.455 2.909 1.455 2.909h1.455v-4.364h-17.454v4.364zM1.727 1.727h1.427v-1.427h-2.855v2.855h1.427zM0.3 31.7h2.855v-1.427h-1.427v-1.427h-1.427zM0.3 6.009h1.427v2.855h-1.427v-2.855zM0.3 11.718h1.427v2.855h-1.427v-2.855zM0.3 17.427h1.427v2.855h-1.427v-2.855zM0.3 23.136h1.427v2.855h-1.427v-2.855zM28.845 31.7h2.855v-2.855h-1.427v1.427h-1.427zM31.7 0.3h-2.855v1.427h1.427v1.427h1.427zM30.273 23.136h1.427v2.855h-1.427v-2.855zM30.273 17.427h1.427v2.855h-1.427v-2.855zM30.273 11.718h1.427v2.855h-1.427v-2.855zM30.273 6.009h1.427v2.855h-1.427v-2.855zM6.009 30.273h2.855v1.427h-2.855v-1.427zM11.718 30.273h2.855v1.427h-2.855v-1.427zM17.427 30.273h2.855v1.427h-2.855v-1.427zM23.136 30.273h2.855v1.427h-2.855v-1.427zM6.009 0.3h2.855v1.427h-2.855v-1.427zM11.718 0.3h2.855v1.427h-2.855v-1.427zM17.427 0.3h2.855v1.427h-2.855v-1.427zM23.136 0.3h2.855v1.427h-2.855v-1.427z"></path>
</svg>
<svg id="icon-Select" width="32" height="32" viewBox="0 0 32 32" x="384" y="64">
<path d="M1.727 1.727h1.427v-1.427h-2.855v2.855h1.427zM0.3 31.7h2.855v-1.427h-1.427v-1.427h-1.427zM0.3 6.009h1.427v2.855h-1.427v-2.855zM0.3 11.718h1.427v2.855h-1.427v-2.855zM0.3 17.427h1.427v2.855h-1.427v-2.855zM0.3 23.136h1.427v2.855h-1.427v-2.855zM28.845 31.7h2.855v-2.855h-1.427v1.427h-1.427zM31.7 0.3h-2.855v1.427h1.427v1.427h1.427zM30.273 23.136h1.427v2.855h-1.427v-2.855zM30.273 17.427h1.427v2.855h-1.427v-2.855zM30.273 11.718h1.427v2.855h-1.427v-2.855zM30.273 6.009h1.427v2.855h-1.427v-2.855zM6.009 30.273h2.855v1.427h-2.855v-1.427zM11.718 30.273h2.855v1.427h-2.855v-1.427zM17.427 30.273h2.855v1.427h-2.855v-1.427zM23.136 30.273h2.855v1.427h-2.855v-1.427zM6.009 0.3h2.855v1.427h-2.855v-1.427zM11.718 0.3h2.855v1.427h-2.855v-1.427zM17.427 0.3h2.855v1.427h-2.855v-1.427zM23.136 0.3h2.855v1.427h-2.855v-1.427z"></path>
</svg>
<svg id="icon-Fit" width="32" height="32" viewBox="0 0 32 32" x="448" y="64">
<path d="M16 9c-3.854 0-7 3.146-7 7s3.146 7 7 7c3.854 0 7-3.146 7-7s-3.146-7-7-7zM16 11c2.773 0 5 2.227 5 5s-2.227 5-5 5c-2.773 0-5-2.227-5-5s2.227-5 5-5zM4 4v7h2v-5h5v-2zM21 4v2h5v5h2v-7zM4 21v7h7v-2h-5v-5zM26 21v5h-5v2h7v-7z"></path>
</svg>
<svg id="icon-Selectable" width="32" height="32" viewBox="0 0 32 32" x="512" y="64">
<path d="M11 12.303l0.041 16.505 4.154-5.845 6.952 1.262zM16.126 22.598l-1.861 0.733 2.797 7.107 1.861-0.734zM2 4v6h2v-4h4v-2zM2 24v6h6v-2h-4v-4zM24 4v2h4v4h2v-6zM28 24v4h-4v2h6v-6zM10 4v2h4v-2zM18.055 4.082v2h4v-2zM28 12v4h2v-4zM2 12v4h2v-4zM2 18v4h2v-4zM28 18v4h2v-4z"></path>
</svg>
<svg id="icon-Cursor" width="32" height="32" viewBox="0 0 32 32" x="576" y="64">
<path d="M8.552 4.406l0.055 21.541 5.551-7.628 9.289 1.648zM15.086 17.944l-1.855 0.748 3.738 9.275 1.855-0.748z"></path>
</svg>
<svg id="icon-Hand" width="32" height="32" viewBox="0 0 32 32" x="640" y="64">
<path d="M20.825 15.67h-1.421v-12.851c0-0.688-0.711-1.377-1.421-1.377v0c-0.711 0.23-1.421 0.688-1.421 1.606v0 12.851h-1.184v-12.851c0-1.377 1.184-2.524 2.605-2.524v0c1.658-0.23 2.842 0.918 2.842 2.524v0 12.622zM24.852 15.67h-1.184v-10.557c0-0.688-0.711-1.377-1.421-1.377v0c-0.711 0-1.421 0.688-1.421 1.377v0h-1.421c0-1.377 1.184-2.524 2.605-2.524v0c1.421 0 2.605 1.147 2.605 2.524v0 10.557h0.237zM27.931 30.128c-0.947 0.918-2.132 1.377-3.553 1.377v0h-9.948c-0.947 0-1.895-0.459-2.605-1.147v0 0 0c0 0-7.106-10.557-8.053-12.393v0c-0.237-0.459-0.711-1.147-0.711-2.065v0c0-1.606 1.421-2.983 3.079-2.983v0c1.184 0 2.132 0.459 2.605 1.377v0l2.369 2.754v-10.327c0-1.377 1.184-2.524 2.605-2.524v0c1.421 0 2.605 1.147 2.605 2.524v0h-1.184c0-0.688-0.711-1.377-1.421-1.377v0c-0.711 0-1.421 0.688-1.421 1.377v0 13.769l-4.5-5.508c-0.237-0.459-0.947-0.918-1.658-0.918v0c-0.947 0-1.895 0.918-1.895 1.836v0c0 0.459 0.237 0.918 0.474 1.377v0c0.474 0.918 2.605 3.901 4.5 6.885v0c1.658 2.754 3.316 5.278 3.553 5.508v0c0.474 0.23 0.947 0.459 1.658 0.459v0h9.948c1.184 0 2.132-0.23 2.605-0.918v0c0.474-0.459 0.947-1.147 0.947-2.295v0-16.523c0-0.688-0.711-1.377-1.421-1.377v0c-0.947-0.229-1.658 0.459-1.658 1.377v0h-1.184c0-1.377 1.184-2.524 2.605-2.524v0c1.421 0 2.605 1.147 2.605 2.524v0 16.523c0 0 0 0 0 0v0c0.237 1.377-0.237 2.524-0.947 3.213v0z"></path>
</svg>
<svg id="icon-Lines" width="32" height="32" viewBox="0 0 32 32" x="704" y="64">
<path d="M0 26.182h32v1.455h-32v-1.455zM0 18.909h32v1.455h-32v-1.455zM0 11.636h32v1.455h-32v-1.455zM0 4.364h32v1.455h-32v-1.455z"></path>
</svg>
<svg id="icon-LineStyles" width="32" height="32" viewBox="0 0 32 32" x="768" y="64">
<path d="M0 18.909h2.909v1.455h-2.909v-1.455zM0 4.364h2.909v1.455h-2.909v-1.455zM0 26.182h10.182v1.455h-10.182v-1.455zM26.182 26.182h5.818v1.455h-5.818v-1.455zM13.091 26.182h10.182v1.455h-10.182v-1.455zM26.182 18.909h5.818v1.455h-5.818v-1.455zM5.818 18.909h4.364v1.455h-4.364v-1.455zM13.091 18.909h2.909v1.455h-2.909v-1.455zM18.909 18.909h4.364v1.455h-4.364v-1.455zM13.091 11.636h13.091v1.455h-13.091v-1.455zM29.091 11.636h2.909v1.455h-2.909v-1.455zM0 11.636h10.182v1.455h-10.182v-1.455zM29.091 4.364h2.909v1.455h-2.909v-1.455zM5.818 4.364h10.182v1.455h-10.182v-1.455zM18.909 4.364h7.273v1.455h-7.273v-1.455z"></path>
</svg>
<svg id="icon-LineStroke" width="32" height="32" viewBox="0 0 32 32" x="832" y="64">
<path d="M-0.001 5h32.002v-2h-32.002v2zM-0.001 13h2v-2h-2v2zM6 13h2v-2h-2v2zM12 13h2v-2h-2v2zM18 13h2v-2h-2v2zM24 13h2v-2h-2v2zM30.001 13h2v-2h-2v2zM6 21h6v-2h-6v2zM16 21h6v-2h-6v2zM26 21h6v-2h-6v2zM6 29.001h6v-2h-6v2zM-0.001 29.001h2v-2h-2v2zM22 29.001h6v-2h-6v2zM16 29.001h2v-2h-2v2zM30.001 29.001h2v-2h-2v2zM-0.001 21h2v-2h-2v2z"></path>
</svg>
<svg id="icon-LineWidth" width="32" height="32" viewBox="0 0 32 32" x="896" y="64">
<path d="M-0.001 27.001h32.002v-8h-32.002v8zM-0.001 15h32.002v-4h-32.002v4zM-0.001 7h32.002v-2h-32.002v2zM-0.001 19.25h32.002v-0.5h-32.002v0.5zM-0.001 11.25h32.002v-0.5h-32.002v0.5z"></path>
</svg>
<svg id="icon-Upload" width="32" height="32" viewBox="0 0 32 32" x="960" y="64">
<path d="M0 22.999v9h32v-9h-2v7h-28v-7zM15 21.415v-19h2v19zM9.707 10.122l-1.414-1.414 7.707-7.709 7.707 7.709-1.414 1.414-6.293-6.293z"></path>
</svg>
<svg id="icon-Download" width="32" height="32" viewBox="0 0 32 32" x="1024" y="64">
<path d="M0 22.999v9h32v-9h-2v7h-28v-7zM15 0.999v19h2v-19zM9.707 12.292l-1.414 1.414 7.707 7.709 7.707-7.709-1.414-1.414-6.293 6.293z"></path>
</svg>
<svg id="icon-Grid" width="32" height="32" viewBox="0 0 32 32" x="1088" y="64">
<path d="M0.082 4.285v21.832h31.836v-21.832zM2.082 6.285h27.836v17.832h-27.836zM2 14.199v2h28v-2zM10 6.199v18h2v-18zM20 6.199v18h2v-18z"></path>
</svg>
<svg id="icon-BarChart" width="32" height="32" viewBox="0 0 32 32" x="1152" y="64">
<path d="M32 32v-1.522h-30.478v-30.478h-1.522v32zM7.189 21.527h1.522v5.347h-1.522v-5.347zM13.797 16.881h1.522v9.992h-1.522v-9.992zM20.426 9.672h1.522v17.201h-1.522v-17.201zM27.054 1.181h1.522v25.692h-1.522v-25.692z"></path>
</svg>
<svg id="icon-LineChart" width="32" height="32" viewBox="0 0 32 32" x="1216" y="64">
<path d="M7.168 7.587l-5.958 18.003 1.9 0.629 3.854-11.647 3.058 11.441 2.55-4.325 3.437 10.312 5.818-13.364 4.864 12.835 5.118-8.352-1.704-1.044-2.989 4.875-5.16-13.618-5.7 13.087-3.177-9.527-2.358 3.996zM0 0v32h32v-2h-30v-30z"></path>
</svg>
<svg id="icon-Height" width="32" height="32" viewBox="0 0 32 32" x="1280" y="64">
<path d="M6.609 3.442l-5.958 18.003 1.9 0.629 3.854-11.647 3.058 11.441 2.55-4.325 3.437 10.312 5.818-13.364 4.864 12.835 5.118-8.352-1.704-1.044-2.989 4.875-5.16-13.618-5.7 13.087-3.177-9.527-2.358 3.996z"></path>
</svg>
<svg id="icon-HeightUp" width="32" height="32" viewBox="0 0 32 32" x="1344" y="64">
<path d="M10.667 7.201l0.747 0.747 4.053-4.053v11.839h1.067v-11.839l3.946 4.053 0.747-0.747-5.226-5.333zM6.609 7.587l-5.958 18.003 1.9 0.629 3.854-11.647 3.058 11.441 2.55-4.325 3.437 10.312 5.818-13.364 4.864 12.835 5.118-8.352-1.704-1.044-2.989 4.875-5.16-13.618-5.7 13.087-3.177-9.527-2.358 3.996z"></path>
</svg>
<svg id="icon-HeightDown" width="32" height="32" viewBox="0 0 32 32" x="1408" y="64">
<path d="M11.414 9.654l4.053 4.053v-11.839h1.067v11.839l3.946-4.053 0.747 0.747-5.226 5.333-5.333-5.333zM6.609 7.587l-5.958 18.003 1.9 0.629 3.854-11.647 3.058 11.441 2.55-4.325 3.437 10.312 5.818-13.364 4.864 12.835 5.118-8.352-1.704-1.044-2.989 4.875-5.16-13.618-5.7 13.087-3.177-9.527-2.358 3.996z"></path>
</svg>
<svg id="icon-Sun" width="32" height="32" viewBox="0 0 32 32" x="1472" y="64">
<path d="M7.287 15.947c0 4.752 3.908 8.66 8.66 8.66s8.66-3.908 8.66-8.66c0-4.752-3.908-8.66-8.66-8.66s-8.66 3.908-8.66 8.66zM15.947 9.399c3.591 0 6.548 2.957 6.548 6.548s-2.957 6.548-6.548 6.548c-3.591 0-6.548-2.957-6.548-6.548s2.957-6.548 6.548-6.548zM14.891 0h2.112v4.224h-2.112v-4.224zM14.891 27.776h2.112v4.224h-2.112v-4.224zM9.146 6.324l-2.112-3.658 1.829-1.056 2.112 3.658-1.829 1.056zM20.953 26.667l1.829-1.056 2.112 3.659-1.829 1.056-2.112-3.659zM6.324 9.146l-1.056 1.829-3.659-2.112 1.056-1.829 3.659 2.112zM26.668 20.953l3.658 2.113-1.057 1.829-3.658-2.113 1.057-1.829zM0 14.891h4.224v2.112h-4.224v-2.112zM27.776 14.891h4.224v2.112h-4.224v-2.112zM5.191 20.912l1.056 1.829-3.659 2.112-1.056-1.829 3.659-2.112zM30.32 8.903l-3.659 2.111-1.055-1.83 3.659-2.111 1.055 1.83zM10.974 26.623l-2.112 3.658-1.829-1.056 2.112-3.658 1.829 1.056zM20.914 5.19l2.114-3.657 1.829 1.057-2.114 3.657-1.829-1.057z"></path>
</svg>
<svg id="icon-Search" width="32" height="32" viewBox="0 0 32 32" x="1536" y="64">
<path d="M27.249 13.774c0-7.429-6.046-13.474-13.474-13.474s-13.474 6.046-13.474 13.474c0 7.429 6.046 13.474 13.474 13.474 3.438 0 6.599-1.304 8.97-3.438l7.765 7.765 1.067-1.067-7.765-7.745c2.134-2.391 3.438-5.532 3.438-8.99zM1.802 13.774c0-6.599 5.374-11.973 11.973-11.973s11.973 5.374 11.973 11.973c0 6.599-5.374 11.973-11.973 11.973-6.599 0.020-11.973-5.354-11.973-11.973z"></path>
</svg>
<svg id="icon-Edit" width="32" height="32" viewBox="0 0 32 32" x="1600" y="64">
<path d="M31.329 7.675c0.502-0.501 0.502-1.251 0-1.752l-5.276-5.256c-0.502-0.501-1.256-0.501-1.759 0l-23.992 23.9v7.133h7.16l23.866-24.026zM25.174 1.543l5.276 5.256-3.517 3.629-5.401-5.381 3.643-3.504zM20.652 5.923l5.401 5.381-17.837 17.644-5.276-5.256 17.711-17.769zM1.559 30.324v-5.256l0.502-0.501 5.276 5.256-0.502 0.501h-5.276z"></path>
</svg>
<svg id="icon-FolderClosed" width="32" height="32" viewBox="0 0 32 32" x="1664" y="64">
<path d="M26.99 26.997h-24.168c-1.282 0-2.322-1.012-2.322-2.267v-17.461c0-1.255 1.041-2.267 2.322-2.267h13.977c1.742 0 2.663 0.881 3.403 1.686 0.58 0.637 1.782 1.948 2.243 2.454h4.525c1.282 0 2.102 0.545 2.102 1.8 0 0.319-0.040-0.105-0.38-0.105s-0.563 0.156-0.563-0.162c0-0.637-0.538-0.41-1.158-0.41h-4.806c-0.18 0-0.341-0.075-0.46-0.187-0.020-0.019-1.722-1.873-2.423-2.66-0.741-0.843-1.361-1.293-2.483-1.293h-13.977c-0.621 0-1.121 0.506-1.121 1.143v17.461c0 0.637 0.501 1.143 1.121 1.143h24.168c0.341 0 0.6 0.244 0.6 0.562s-0.28 0.562-0.6 0.562zM27.010 26.997h-24.168c-1.282 0-2.322-0.899-2.322-2.005 0-0.075 0.020-0.15 0.060-0.225 0.126-0.879 0.763-7.619 1.177-10.852 0.060-0.094 0.341-2.287 0.4-2.381 0.203-0.831 0.881-1.424 2.062-1.424l24.957-0.045c1.282 0 2.322 0.899 2.322 2.005 0 0.075-0.020 0.15-0.040 0.225-0.175 1.37-1.43 10.561-1.626 12.112-0.304 0.969-0.11 0.389-0.451 1.295-0.541 0.918-1.071 1.294-2.373 1.294zM1.701 25.086c0.060 0.431 0.541 0.787 1.121 0.787h24.168c0.541 0 0.958 0.1 1.422-0.761 0.12-0.206 0.339-1.098 0.381-1.337 0.31-1.785 1.112-7.884 1.506-11.817-0.060-0.431-0.43-0.82-1.011-0.82l-25.087 0.098c-0.46 0-0.617 0.031-0.911 0.395-0.327 1.767-0.341 2.654-0.658 5.067-0.44 3.426-0.688 5.333-0.93 8.389z"></path>
</svg>
<svg id="icon-Folder" width="32" height="32" viewBox="0 0 32 32" x="1728" y="64">
<path d="M24.512 26.997h-21.907c-1.162 0-2.105-1.012-2.105-2.267v-17.461c0-1.255 0.944-2.267 2.105-2.267h12.669c1.579 0 2.414 0.881 3.085 1.686 0.526 0.637 1.615 1.948 2.033 2.454h4.102c1.162 0 2.105 1.012 2.105 2.267 0 0.319-0.236 0.562-0.544 0.562s-0.544-0.244-0.544-0.562c0-0.637-0.454-1.143-1.016-1.143h-4.356c-0.163 0-0.309-0.075-0.417-0.187-0.018-0.019-1.561-1.873-2.196-2.66-0.672-0.843-1.234-1.293-2.251-1.293h-12.669c-0.563 0-1.016 0.506-1.016 1.143v17.461c0 0.637 0.454 1.143 1.016 1.143h21.907c0.309 0 0.544 0.244 0.544 0.562s-0.254 0.562-0.544 0.562zM24.53 26.997c0 0-0.018 0-0.018 0h-21.889c-1.162 0-2.105-0.899-2.105-2.005 0-0.075 0.018-0.15 0.054-0.225 0.181-0.412 4.392-10.286 4.9-11.185 0.054-0.094 0.109-0.187 0.163-0.281 0.417-0.731 0.799-1.424 1.869-1.424l21.889-0.112c1.162 0 2.105 0.899 2.105 2.005 0 0.075-0.018 0.15-0.036 0.225-0.399 0.937-3.83 9.461-4.374 10.379-0.109 0.169-0.2 0.356-0.309 0.562-0.49 0.918-1.071 2.061-2.251 2.061zM1.589 25.086c0.054 0.431 0.49 0.787 1.016 0.787h21.907c0.49 0 0.835-0.6 1.289-1.461 0.109-0.206 0.218-0.431 0.345-0.637 0.381-0.618 2.741-6.351 4.265-10.117-0.054-0.431-0.49-0.787-1.016-0.787l-21.907 0.131c-0.417 0-0.526 0.131-0.926 0.862-0.054 0.094-0.109 0.187-0.163 0.3-0.399 0.693-3.557 8-4.81 10.922z"></path>
</svg>
<svg id="icon-Copy" width="32" height="32" viewBox="0 0 32 32" x="1792" y="64">
<path d="M7.781 3.567v28.438h18.162l6.074-7.703v-20.734zM9.781 5.567h20.236v18.041l-5.043 6.396h-15.193zM29.949 22.999v7.045h-4.744v1.955h6.701v-9zM0 0.028v28.145h8.381v-2h-6.381v-24.145h20.145v2.734h2v-4.734zM12.063 8.866v2h16v-2zM12.063 12.374v2h16v-2zM12.045 15.974v2h11.955v-2zM4.063 5.187v2h3.938v-2zM4.063 8.696v2h3.938v-2zM4.045 12.294v2h3.955v-2z"></path>
</svg>
<svg id="icon-Delete" width="32" height="32" viewBox="0 0 32 32" x="1856" y="64">
<path d="M29.562 4.75h-6.705v-2.25c0-1.2-1.067-2.25-2.286-2.25h-9.143c-1.219 0-2.286 1.050-2.286 2.25v2.25h-6.705v1.5h2.286l3.048 25.5h16.457l3.048-25.5h2.286v-1.5zM10.667 2.5c0-0.45 0.305-0.75 0.762-0.75h9.143c0.457 0 0.762 0.3 0.762 0.75v2.25h-10.667v-2.25zM22.857 30.25h-13.714l-2.895-24h19.505l-2.895 24zM15.238 11.941h1.524v12.19h-1.524v-12.19zM10.667 11.941h1.524v12.19h-1.524v-12.19zM19.809 11.941h1.524v12.19h-1.524v-12.19z"></path>
</svg>
<svg id="icon-Locked" width="32" height="32" viewBox="0 0 32 32" x="1920" y="64">
<path d="M24.648 8.945c0-2.019-0.618-3.801-1.853-5.108-0.741-0.95-1.853-1.782-1.977-1.782-1.359-0.95-2.965-1.425-4.695-1.425-4.695 0-8.525 3.682-8.525 8.196v2.376h-4.077v20.193h24.957v-20.193h-3.83v-2.257zM8.711 10.845v-1.9c0-3.92 3.336-7.127 7.413-7.127s7.413 3.207 7.413 7.127v2.376h-14.826v-0.475zM26.996 12.27h0.371v18.055h-22.61v-18.055h22.239zM18.718 19.397c0-1.307-1.112-2.494-2.595-2.494-1.359 0-2.595 1.069-2.595 2.494 0 1.069 0.741 1.901 1.73 2.257l0.247 0.119v3.801h1.112v-3.801l0.247-0.119c1.112-0.356 1.853-1.188 1.853-2.257z"></path>
</svg>
<svg id="icon-Unlocked" width="32" height="32" viewBox="0 0 32 32" x="1984" y="64">
<path d="M8.587 11.071v-2.376c0-3.92 3.336-7.127 7.413-7.127 1.977 0 3.83 0.831 5.189 2.019h1.483c0 0 0 0 0 0-0.741-0.95-1.853-1.782-1.977-1.782-1.359-0.713-2.965-1.188-4.695-1.188-4.695 0-8.525 3.682-8.525 8.196v2.376h-3.954v20.193h24.958v-20.193h-19.892zM27.367 30.194h-22.734v-18.055h22.734v18.055zM18.471 19.266c0-1.307-1.112-2.494-2.595-2.494-1.236 0.119-2.471 1.188-2.471 2.494 0 1.069 0.741 1.9 1.73 2.257l0.247 0.119v3.92h1.112v-3.801l0.247-0.119c1.112-0.475 1.73-1.307 1.73-2.376z"></path>
</svg>
<svg id="icon-Label" width="32" height="32" viewBox="0 0 32 32" x="0" y="128">
<path d="M19.13 29.148l-17.17-17.161v-0.238l1.192-8.342v-0.358h0.358l8.347-1.192h0.238l0.119 0.119 17.17 17.4-10.016 10.011-0.238-0.238zM12.453 0.545l-10.493 1.43-1.431 10.488 18.84 18.83 11.924-11.918-18.84-18.83zM13.309 11.203l0.922-0.932 9.579 9.471-0.922 0.932-9.579-9.471zM10.145 14.446l0.922-0.932 9.579 9.471-0.922 0.932-9.579-9.471zM9.114 7.219c-0.835 0-1.431 0.596-1.431 1.43s0.596 1.43 1.431 1.43c0.835 0 1.431-0.596 1.431-1.43 0-0.715-0.715-1.43-1.431-1.43z"></path>
</svg>
<svg id="icon-Compare" width="32" height="32" viewBox="0 0 32 32" x="64" y="128">
<path d="M24.817 25.778c-3.67 0-6.758-3.259-6.758-7.111v-0.593h13.515v0.593c0 3.852-3.087 7.111-6.758 7.111zM19.225 19.259c0.291 2.963 2.738 5.333 5.592 5.333s5.301-2.37 5.592-5.333h-11.185zM19.197 18.785l-0.98-0.593 6.628-12.681 6.628 12.681-1.037 0.593-5.591-10.785zM7.153 25.778c-3.67 0-6.758-3.259-6.758-7.111v-0.593h13.515v0.593c0 3.852-3.088 7.111-6.758 7.111zM1.618 19.259c0.291 2.963 2.738 5.333 5.592 5.333s5.301-2.37 5.592-5.333h-11.185zM1.59 18.785l-1.037-0.593 6.628-12.681 6.628 12.681-0.98 0.593-5.648-10.785zM6.654 5.037h18.718v1.185h-18.718v-1.185zM15.428 2.667h1.17v25.659h-1.17v-25.659zM10.748 28.148h10.529v1.185h-10.529v-1.185z"></path>
</svg>
<svg id="icon-Visible" width="32" height="32" viewBox="0 0 32 32" x="128" y="128">
<path d="M0.644 15.248l-0.644 0.752 0.644 0.752c0.322 0.322 6.98 7.195 15.356 7.195s15.033-6.98 15.356-7.195l0.644-0.752-0.644-0.752c-0.322-0.322-6.98-7.195-15.356-7.195s-15.033 6.872-15.356 7.195zM16.215 13.638c1.289 0.107 2.148 1.181 2.040 2.47-0.107 1.181-1.181 2.148-2.362 2.040-1.289-0.107-2.148-1.181-2.040-2.47 0-1.181 1.181-2.148 2.362-2.040zM19.114 21.476c1.718-0.966 3.007-2.792 3.114-4.94 0.107-1.074-0.107-2.148-0.537-3.114-0.215 0.322-0.644 0.537-1.074 0.537-0.644 0-1.181-0.644-1.074-1.289 0-0.537 0.43-0.966 0.966-1.074-0.43-0.43-0.966-0.752-1.503-1.074 4.617 1.074 8.376 4.081 9.987 5.476-1.503 1.396-5.262 4.403-9.879 5.476zM12.886 10.524c-1.718 0.966-3.007 2.792-3.114 4.94-0.215 2.47 1.074 4.832 3.221 6.013-4.617-1.074-8.376-4.081-9.879-5.476 1.396-1.396 5.154-4.403 9.772-5.476z"></path>
</svg>
<svg id="icon-FillColor" width="32" height="32" viewBox="0 0 32 32" x="192" y="128">
<path d="M7.747 4.63v9.037h19.623v-9.037h-0.551zM9.73 6.612h15.658v5.074h-15.658zM4.984 7.277v9.156h11.584v3.191h-1.381v9.037h4.746v-9.037h-1.383v-5.174h-11.584v-7.174zM17.167 21.607h0.783v5.074h-0.783zM10.552 7.45v1.746h14.080v-1.746z"></path>
</svg>
<svg id="icon-Layer" width="32" height="32" viewBox="0 0 32 32" x="256" y="128">
<path d="M15.553 3.105l-11.789 5.895 12.236 6.117 12.236-6.117-11.789-5.895-0.447 0.895zM16 5.117l7.764 3.883-7.764 3.883-7.764-3.883zM9.553 12.105l-5.789 2.895 12.236 6.117 12.236-6.117-5.789-2.895-0.895 1.789 2.211 1.105-7.764 3.883-7.764-3.883 2.211-1.105zM9.553 18.105l-5.789 2.895 12.236 6.117 12.236-6.117-5.789-2.895-0.895 1.789 2.211 1.105-7.764 3.883-7.764-3.883 2.211-1.105z"></path>
</svg>
<svg id="icon-LayerProperties" width="32" height="32" viewBox="0 0 32 32" x="320" y="128">
<path d="M3.547 8.331l10.606-5.209 10.606 5.209-10.606 5.209-10.606-5.209zM14.154 1.952l-13.008 6.379 13.008 6.379 13.008-6.379-13.008-6.379zM1.146 17.535l13.008 6.379 1.201-0.532-0.3-0.213-0.1-0.744-0.8 0.319-10.606-5.209 1.901-0.957-1.201-0.638-3.102 1.595zM1.146 13.282l13.008 6.379 2.602-1.276-0.4-0.957-2.201 1.063-10.606-5.209 1.901-0.957-1.201-0.532-3.102 1.488zM23.926 17.884c-1.684 0-3.087 1.491-3.087 3.28s1.403 3.28 3.087 3.28c1.684 0 3.087-1.491 3.087-3.28 0-1.888-1.31-3.28-3.087-3.28zM23.926 23.35c-1.123 0-2.152-0.994-2.152-2.286 0-1.193 0.935-2.286 2.152-2.286s2.152 0.994 2.152 2.286c0 1.292-0.935 2.286-2.152 2.286zM31.41 20.269l-0.094-0.596-1.684-0.596c-0.094-0.199-0.187-0.398-0.281-0.696l0.842-1.789-0.374-0.497c-0.281-0.398-0.655-0.795-1.029-1.093l-0.468-0.398-1.684 0.894c-0.187-0.099-0.374-0.199-0.655-0.298l-0.561-1.789-0.655-0.199c-0.281 0-0.468 0-0.748 0s-0.468 0-0.748 0l-0.561 0.099-0.187 0.596-0.561 1.193c-0.187 0.099-0.374 0.199-0.655 0.298l-1.684-0.894-0.468 0.398c-0.374 0.298-0.748 0.696-1.029 1.093l-0.374 0.497 0.842 1.789c-0.094 0.199-0.187 0.398-0.281 0.696l-1.123 0.398-0.561 0.298-0.094 0.696c0 0.298 0 0.497 0 0.795s0 0.497 0 0.795l0.094 0.696 1.684 0.596c0.094 0.199 0.187 0.398 0.281 0.696l-0.561 1.193-0.281 0.497 0.374 0.497c0.281 0.398 0.655 0.795 1.029 1.093l0.468 0.398 1.684-0.894c0.187 0.099 0.374 0.199 0.655 0.298l0.561 1.789 0.561 0.099c0.281 0 0.468 0 0.748 0s0.468 0 0.748 0l0.561-0.099 0.561-1.789c0.187-0.099 0.374-0.199 0.655-0.298l1.684 0.894 0.468-0.398c0.374-0.298 0.748-0.696 1.029-1.093l0.374-0.497-0.842-1.789c0.094-0.199 0.187-0.398 0.281-0.696l1.684-0.596 0.094-0.596c0-0.298 0-0.497 0-0.795s0.281-0.596 0.281-0.894zM30.475 21.859l-1.59 0.596c-0.094 0.497-0.281 0.994-0.561 1.391l0.748 1.69c-0.281 0.398-0.561 0.696-0.935 0.994l-1.59-0.795c-0.374 0.298-0.842 0.497-1.31 0.596l-0.561 1.69c-0.187 0-0.468 0-0.655 0s-0.468 0-0.655 0l-0.561-1.69c-0.468-0.099-0.935-0.298-1.31-0.596l-1.497 0.795c-0.374-0.298-0.655-0.596-0.935-0.994l0.748-1.69c-0.281-0.398-0.468-0.894-0.561-1.391l-1.59-0.596c0-0.199 0-0.497 0-0.696s0-0.497 0-0.696l1.59-0.596c0.094-0.497 0.281-0.994 0.561-1.391l-0.748-1.69c0.281-0.398 0.561-0.696 0.935-0.994l1.497 0.795c0.374-0.298 0.842-0.497 1.31-0.596l0.561-1.69c0.187 0 0.468 0 0.655 0s0.468 0 0.655 0l0.561 1.69c0.468 0.099 0.935 0.298 1.31 0.596l1.59-0.795c0.374 0.298 0.655 0.596 0.935 0.994l-0.748 1.69c0.281 0.398 0.468 0.894 0.561 1.391l1.59 0.596c0 0.199 0 0.497 0 0.696s0 0.398 0 0.696z"></path>
</svg>
<svg id="icon-LineColor" width="32" height="32" viewBox="0 0 32 32" x="384" y="128">
<path d="M18.051 26.039c1.759-1.759 1.993-3.516 1.642-5.041v0l3.282-3.282-0.703-0.82 9.143-9.143-5.744-5.861-9.26 9.143-0.82-0.82-3.165 3.165c-1.406-0.351-3.165-0.117-5.158 1.876-4.102 4.102 0.82 10.784-6.681 11.605 7.502 4.102 14.184 2.462 17.465-0.82zM25.553 3.65l4.102 4.102-8.323 8.323-4.102-4.219 8.323-8.205zM15.589 11.856l5.861 5.744-1.759 1.759-5.861-5.744 1.759-1.759zM6.447 21.233c0.117-1.876 0.234-3.751 1.642-5.158 3.048-3.048 5.275-1.406 7.502 0.82v0c2.579 2.579 4.572 5.392 1.642 8.205-2.696 2.696-7.62 3.985-13.363 1.876 2.345-1.289 2.462-3.751 2.579-5.744z"></path>
</svg>
<svg id="icon-Location" width="32" height="32" viewBox="0 0 32 32" x="448" y="128">
<path d="M15.98 31.7h0.060c0.98-0.020 1.92-0.437 2.56-1.192 0.76-0.874 1.46-1.668 2.12-2.403 6.68-7.627 8.48-9.692 8.48-14.697 0-7.229-5.92-13.108-13.2-13.108s-13.2 5.879-13.2 13.108c0 5.899 4.54 10.705 8.92 15.333 0.58 0.596 1.16 1.231 1.72 1.847 0.66 0.715 1.58 1.112 2.54 1.112zM4.32 13.408c0-6.395 5.24-11.599 11.68-11.599s11.68 5.204 11.68 11.599c0 4.429-1.56 6.216-8.12 13.704-0.66 0.755-1.36 1.549-2.12 2.423-0.36 0.417-0.88 0.655-1.44 0.655h-0.020c-0.54 0-1.060-0.218-1.42-0.616-0.56-0.616-1.16-1.251-1.74-1.847-4.18-4.429-8.5-8.997-8.5-14.32zM15.92 18.91c-2.92 0-5.3-2.363-5.3-5.263s2.38-5.263 5.3-5.263c2.92 0 5.3 2.363 5.3 5.263 0 2.92-2.38 5.263-5.3 5.263zM15.92 9.793c-2.14 0-3.9 1.728-3.9 3.873 0 2.125 1.74 3.873 3.9 3.873 2.14 0 3.9-1.728 3.9-3.873s-1.74-3.873-3.9-3.873z"></path>
</svg>
<svg id="icon-Center" width="32" height="32" viewBox="0 0 32 32" x="512" y="128">
<path d="M15.429 19.994h1.141v-3.424h3.424v-1.141h-3.424v-3.424h-1.141v3.424h-3.424v1.141h3.424zM16.571 2.875v-2.283h-1.141v2.283c-6.848 0.342-12.212 5.706-12.554 12.554h-2.283v1.141h2.283c0.342 6.848 5.706 12.212 12.554 12.554v2.283h1.141v-2.283c6.848-0.342 12.212-5.706 12.554-12.554h2.283v-1.141h-2.283c-0.342-6.848-5.706-12.212-12.554-12.554zM27.984 16.571c-0.342 6.163-5.25 11.070-11.413 11.413v-2.283h-1.141v2.283c-6.163-0.342-11.070-5.25-11.413-11.413h2.283v-1.141h-2.283c0.342-6.163 5.25-11.070 11.413-11.413v2.283h1.141v-2.283c6.163 0.342 11.070 5.25 11.413 11.413h-2.283v1.141h2.283z"></path>
</svg>
<svg id="icon-Longitude" width="32" height="32" viewBox="0 0 32 32" x="576" y="128">
<path d="M32 16c0-8.862-7.138-16-16-16s-16 7.138-16 16c0 8.862 7.138 16 16 16s16-7.138 16-16zM1.231 16c0-7.508 5.662-13.785 12.923-14.646-1.6 2.585-2.462 8.615-2.462 14.646s0.862 12.062 2.462 14.646c-7.262-0.862-12.923-7.138-12.923-14.646zM12.923 16c0-9.723 1.969-14.769 3.077-14.769 8.123 0 14.769 6.646 14.769 14.769s-6.646 14.769-14.769 14.769c-1.108 0-3.077-5.046-3.077-14.769zM20.185 12.431l-1.231 0.123c0 0.738 0.123 1.477 0.123 2.338h1.231c0-0.862 0-1.723-0.123-2.462zM18.708 3.077l-1.108 0.369c0.246 0.615 0.369 1.354 0.615 2.215l1.231-0.246c-0.369-0.862-0.492-1.6-0.738-2.338zM19.692 7.754l-1.231 0.123c0.123 0.738 0.246 1.477 0.369 2.338l1.231-0.123c-0.123-0.862-0.246-1.6-0.369-2.338zM17.477 28.431l1.108 0.369c0.369-0.615 0.492-1.354 0.738-2.215l-1.231-0.246c-0.123 0.738-0.369 1.477-0.615 2.092zM19.077 17.108c0 0.738 0 1.6-0.123 2.338l1.231 0.123c0-0.738 0.123-1.6 0.123-2.338zM18.831 21.785c-0.123 0.738-0.246 1.6-0.246 2.215l1.231 0.123c0-0.615 0.123-1.477 0.246-2.215z"></path>
</svg>
<svg id="icon-Latitude" width="32" height="32" viewBox="0 0 32 32" x="640" y="128">
<path d="M16 0c-8.862 0-16 7.138-16 16s7.138 16 16 16c8.862 0 16-7.138 16-16s-7.138-16-16-16zM16 30.769c-7.508 0-13.785-5.662-14.646-12.923 2.585 1.6 8.615 2.462 14.646 2.462s12.062-0.862 14.646-2.462c-0.862 7.262-7.138 12.923-14.646 12.923zM16 19.077c-9.723 0-14.769-1.969-14.769-3.077 0-8.123 6.646-14.769 14.769-14.769s14.769 6.646 14.769 14.769c0 1.108-5.046 3.077-14.769 3.077zM12.431 11.815l0.123 1.231c0.738 0 1.477-0.123 2.338-0.123v-1.231c-0.862 0-1.723 0-2.462 0.123zM3.077 13.292l0.369 1.108c0.615-0.246 1.354-0.369 2.215-0.615l-0.246-1.231c-0.862 0.369-1.6 0.492-2.338 0.738zM7.754 12.308l0.123 1.231c0.738-0.123 1.477-0.246 2.338-0.369l-0.123-1.231c-0.862 0.123-1.6 0.246-2.338 0.369zM28.431 14.523l0.369-1.108c-0.615-0.369-1.354-0.492-2.215-0.738l-0.246 1.231c0.738 0.123 1.477 0.369 2.092 0.615zM17.108 12.923c0.738 0 1.6 0 2.338 0.123l0.123-1.231c-0.738 0-1.6-0.123-2.338-0.123l-0.123 1.231zM21.785 13.169c0.738 0.123 1.6 0.246 2.215 0.246l0.123-1.231c-0.615 0-1.477-0.123-2.215-0.246l-0.123 1.231z"></path>
</svg>
<svg id="icon-LongLat" width="32" height="32" viewBox="0 0 32 32" x="704" y="128">
<path d="M16 0c-8.862 0-16 7.138-16 16s7.138 16 16 16c8.862 0 16-7.138 16-16s-7.138-16-16-16zM16 30.769c-7.508 0-13.785-5.662-14.646-12.923 2.585 1.6 8.615 2.462 14.646 2.462 2.525 0 5.049-0.151 7.321-0.444 3.155-0.407 5.822-1.087 7.325-2.018-0.862 7.262-7.138 12.923-14.646 12.923zM16 19.077c-9.723 0-14.769-1.969-14.769-3.077 0-8.123 6.646-14.769 14.769-14.769s14.769 6.646 14.769 14.769c0 0.682-1.911 1.69-5.648 2.364-2.335 0.422-5.382 0.713-9.122 0.713zM12.431 11.815l0.123 1.231c0.738 0 1.477-0.123 2.338-0.123v-1.231c-0.862 0-1.723 0-2.462 0.123zM28.431 14.523l0.369-1.108c-0.615-0.369-1.354-0.492-2.215-0.738l-0.246 1.231c0.738 0.123 1.477 0.369 2.092 0.615zM17.108 12.923c0.738 0 1.6 0 2.338 0.123l0.123-1.231c-0.738 0-1.6-0.123-2.338-0.123l-0.123 1.231zM21.785 13.169c0.738 0.123 1.6 0.246 2.215 0.246l0.123-1.231c-0.615 0-1.477-0.123-2.215-0.246l-0.123 1.231zM16 0c-8.862 0-16 7.138-16 16s7.138 16 16 16c8.862 0 16-7.138 16-16s-7.138-16-16-16zM16 30.769c-7.508 0-13.785-5.662-14.646-12.923 2.585 1.6 8.615 2.462 14.646 2.462 2.525 0 5.049-0.151 7.321-0.444 3.155-0.407 5.822-1.087 7.325-2.018-0.862 7.262-7.138 12.923-14.646 12.923zM16 19.077c-9.723 0-14.769-1.969-14.769-3.077 0-8.123 6.646-14.769 14.769-14.769s14.769 6.646 14.769 14.769c0 0.682-1.911 1.69-5.648 2.364-2.335 0.422-5.382 0.713-9.122 0.713zM12.431 11.815l0.123 1.231c0.738 0 1.477-0.123 2.338-0.123v-1.231c-0.862 0-1.723 0-2.462 0.123zM3.077 13.292l0.369 1.108c0.615-0.246 1.354-0.369 2.215-0.615l-0.246-1.231c-0.862 0.369-1.6 0.492-2.338 0.738zM7.754 12.308l0.123 1.231c0.738-0.123 1.477-0.246 2.338-0.369l-0.123-1.231c-0.862 0.123-1.6 0.246-2.338 0.369zM28.431 14.523l0.369-1.108c-0.615-0.369-1.354-0.492-2.215-0.738l-0.246 1.231c0.738 0.123 1.477 0.369 2.092 0.615zM21.785 13.169c0.738 0.123 1.6 0.246 2.215 0.246l0.123-1.231c-0.615 0-1.477-0.123-2.215-0.246zM31.949 15.913c0-8.862-7.138-16-16-16s-16 7.138-16 16c0 8.862 7.138 16 16 16s16-7.138 16-16zM1.18 15.913c0-7.508 5.662-13.785 12.923-14.646-1.6 2.585-2.462 8.615-2.462 14.646 0 2.525 0.151 5.049 0.444 7.321 0.407 3.155 1.087 5.822 2.018 7.325-7.262-0.862-12.923-7.138-12.923-14.646zM12.872 15.913c0-9.723 1.969-14.769 3.077-14.769 8.123 0 14.769 6.646 14.769 14.769s-6.646 14.769-14.769 14.769c-0.682 0-1.69-1.911-2.364-5.648-0.421-2.335-0.713-5.382-0.713-9.122zM20.134 12.344l-1.231 0.123c0 0.738 0.123 1.477 0.123 2.338h1.231c0-0.862 0-1.723-0.123-2.462zM18.657 2.99l-1.108 0.369c0.246 0.615 0.369 1.354 0.615 2.215l1.231-0.246c-0.369-0.862-0.492-1.6-0.738-2.338zM19.642 7.667l-1.231 0.123c0.123 0.738 0.246 1.477 0.369 2.338l1.231-0.123c-0.123-0.862-0.246-1.6-0.369-2.338zM17.426 28.344l1.108 0.369c0.369-0.615 0.492-1.354 0.738-2.215l-1.231-0.246c-0.123 0.738-0.369 1.477-0.615 2.092zM19.026 17.021c0 0.738 0 1.6-0.123 2.338l1.231 0.123c0-0.738 0.123-1.6 0.123-2.338zM18.78 21.697c-0.123 0.738-0.246 1.6-0.246 2.215l1.231 0.123c0-0.615 0.123-1.477 0.246-2.215z"></path>
</svg>
<svg id="icon-World" width="32" height="32" viewBox="0 0 32 32" x="768" y="128">
<path d="M16 0c-8.862 0-16 7.138-16 16s7.138 16 16 16c8.862 0 16-7.138 16-16s-7.138-16-16-16zM16 30.769c-8.123 0-14.769-6.646-14.769-14.769s6.646-14.769 14.769-14.769c8.123 0 14.769 6.646 14.769 14.769s-6.646 14.769-14.769 14.769zM16 0c-4.062 0-7.385 7.138-7.385 16s3.323 16 7.385 16c4.062 0 7.385-7.138 7.385-16s-3.323-16-7.385-16zM16 30.769c-3.446 0-6.154-6.646-6.154-14.769s2.708-14.769 6.154-14.769c3.446 0 6.154 6.646 6.154 14.769s-2.708 14.769-6.154 14.769zM0 16c0 4.062 7.138 7.385 16 7.385s16-3.323 16-7.385c0-4.062-7.138-7.385-16-7.385s-16 3.323-16 7.385zM30.769 16c0 3.446-6.646 6.154-14.769 6.154s-14.769-2.708-14.769-6.154c0-3.446 6.646-6.154 14.769-6.154s14.769 2.708 14.769 6.154z"></path>
</svg>
<svg id="icon-Picture" width="32" height="32" viewBox="0 0 32 32" x="832" y="128">
<path d="M0 4.413v23.174h31.999v-23.174h-31.999zM4.196 26.213l3.076-8.093 0.836-0.149 1.613 5.062 1.583-4.942 0.866 0.343 2.971 7.242 3.584-4.838 0.224-0.045 1-0.194 1.523 3.733 1.269-3.658 0.821 0.269 3.643 5.286-23.010-0.015zM7.78 16.776l1.777-4.704 1.956 4.778-0.986-0.403-0.806 2.523-0.776-2.419-1.165 0.224zM19.815 19.36l1.389-1.881 1.239 1.807-0.747-0.314-0.239 2.359-0.164 0.015-0.597-2.165-0.881 0.179zM30.76 26.363h-1.941l-7.585-11.005-5.779 7.824-5.943-14.454-6.69 17.635h-1.598v-20.726h29.535v20.726zM24.056 14.537c1.866 0 3.39-1.523 3.39-3.39s-1.523-3.39-3.39-3.39c-1.866 0-3.39 1.523-3.39 3.39s1.523 3.39 3.39 3.39zM24.056 8.773c1.299 0 2.374 1.060 2.374 2.374 0 1.299-1.060 2.374-2.374 2.374-1.299 0-2.374-1.060-2.374-2.374 0-1.299 1.075-2.374 2.374-2.374z"></path>
</svg>
<svg id="icon-Raster" width="32" height="32" viewBox="0 0 32 32" x="896" y="128">
<path d="M8.615 14.854c1.89 0 3.427-1.537 3.427-3.426 0-1.89-1.537-3.428-3.427-3.428s-3.427 1.537-3.427 3.427c0 1.89 1.537 3.427 3.427 3.427zM8.615 9.231c1.211 0 2.196 0.986 2.196 2.196s-0.985 2.196-2.196 2.196-2.196-0.985-2.196-2.196 0.985-2.197 2.196-2.197zM0.615 0v32h30.769v-32h-30.769zM1.846 1.231h28.308v16.447l-6.353-5.824c-0.121-0.11-0.279-0.165-0.443-0.161-0.163 0.007-0.317 0.079-0.427 0.2l-6.027 6.601-2.919-2.919c-0.23-0.23-0.598-0.241-0.842-0.027l-10.298 9.067h-0.998v-23.385zM30.154 30.769h-28.308v-4.923h28.308v4.923zM4.707 24.615l8.815-7.761 6.34 6.339c0.241 0.241 0.63 0.241 0.87 0s0.241-0.63 0-0.87l-2.958-2.958 5.65-6.187 6.73 6.169v5.268h-25.447z"></path>
</svg>
<svg id="icon-Measure" width="32" height="32" viewBox="0 0 32 32" x="960" y="128">
<path d="M24.615 21.929h-9.846v1.183h9.846v2.367h-4.923v1.183h4.923v2.367h-4.923v1.183h4.923v1.183h1.231v-30.769h-19.691v30.769h1.231v-29.586h17.23v2.367h-9.846v1.183h9.846v2.367h-4.923v1.183h4.923v2.367h-4.923v1.183h4.923v2.367h-4.923v1.183h4.923v2.367h-4.923v1.183h4.923z"></path>
</svg>
<svg id="icon-Defense" width="32" height="32" viewBox="0 0 32 32" x="1024" y="128">
<path d="M27.648 3.84c-0.64 0-6.528-0.384-10.496-3.456-0.32-0.256-0.704-0.384-1.152-0.384-0.384 0-0.832 0.128-1.152 0.384-3.968 3.136-9.856 3.456-10.56 3.456-1.024 0.064-1.728 0.896-1.728 1.92v7.68c0 12.608 12.16 18.176 12.672 18.368 0.256 0.128 0.512 0.192 0.768 0.192s0.512-0.064 0.768-0.192 12.672-5.76 12.672-18.368v-7.68c0-1.024-0.768-1.792-1.792-1.92zM3.84 5.76c0-0.32 0.256-0.576 0.576-0.64 1.152-0.064 7.040-0.448 11.264-3.712 0.064-0.128 0.192-0.128 0.32-0.128 0.064 0 0.192 0 0.32 0.128 3.968 3.008 9.28 3.584 10.944 3.712l-19.392 19.392c-2.24-2.688-4.032-6.336-4.032-11.072v-7.68zM16.256 30.656c-0.192 0.064-0.384 0.064-0.512 0-0.256-0.128-3.84-1.792-7.040-5.184l19.456-19.456v7.424c0 11.776-11.392 17.024-11.904 17.216z"></path>
</svg>
<svg id="icon-Shapes" width="32" height="32" viewBox="0 0 32 32" x="1088" y="128">
<path d="M2 2v12h12v-12zM4 4h8v8h-8zM23.999 1.998c-1.472 0-2.958 0.487-4.102 1.504s-1.898 2.582-1.897 4.499c0 3.302 2.697 6.001 5.999 6.001s6.002-2.7 6.001-6.003c-0-1.917-0.755-3.48-1.899-4.497s-2.629-1.504-4.102-1.504zM23.999 3.998c1.028 0 2.042 0.348 2.773 0.998s1.228 1.588 1.228 3.005c0.001 2.221-1.78 3.999-4.001 3.999s-4-1.778-3.999-3.999v-0.002c-0-1.417 0.495-2.353 1.226-3.003s1.745-0.998 2.773-0.998zM8 16.765l-6.617 13.234h13.234zM8 21.238l3.383 6.762h-6.766zM17.585 24l6.414 6.414 6.414-6.414-6.414-6.414zM20.413 24l3.585-3.585 3.585 3.585-3.585 3.585z"></path>
</svg>
<svg id="icon-Route" width="32" height="32" viewBox="0 0 32 32" x="1152" y="128">
<path d="M5.913 10.669c-2.993 0-5.432 2.385-5.432 5.313s2.439 5.313 5.432 5.313c1.737 0 3.289-0.813 4.286-2.060l10.697 5.512c-0.166 0.506-0.24 1.030-0.24 1.59 0 2.928 2.439 5.313 5.432 5.313s5.432-2.385 5.432-5.313c0-2.928-2.439-5.313-5.432-5.313-1.94 0-3.64 0.994-4.6 2.494l-10.549-5.44c0.277-0.633 0.425-1.337 0.425-2.078s-0.148-1.446-0.425-2.078l10.549-5.44c0.961 1.5 2.66 2.494 4.6 2.494 2.993 0 5.432-2.385 5.432-5.313s-2.439-5.313-5.432-5.313c-2.993 0-5.432 2.385-5.432 5.313 0 0.56 0.092 1.084 0.24 1.59l-10.679 5.476c-0.998-1.265-2.55-2.060-4.305-2.060zM26.087 22.397c2.235 0 4.046 1.771 4.046 3.958s-1.811 3.958-4.046 3.958c-2.235 0-4.046-1.771-4.046-3.958s1.811-3.958 4.046-3.958zM26.087 1.669c2.235 0 4.046 1.771 4.046 3.958s-1.811 3.958-4.046 3.958c-2.235 0-4.046-1.771-4.046-3.958s1.811-3.958 4.046-3.958zM5.913 19.94c-2.235 0-4.046-1.771-4.046-3.958s1.811-3.958 4.046-3.958c2.235 0 4.046 1.771 4.046 3.958s-1.811 3.958-4.046 3.958z"></path>
</svg>
<svg id="icon-Rectangle" width="32" height="32" viewBox="0 0 32 32" x="1216" y="128">
<path d="M25.846 4.923h-19.692v-2.462h-6.154v6.154h2.462v14.769h-2.462v6.154h6.154v-2.462h19.692v2.462h6.154v-6.154h-2.462v-14.769h2.462v-6.154h-6.154v2.462zM1.231 7.385v-3.692h3.692v3.692h-3.692zM4.923 28.308h-3.692v-3.692h3.692v3.692zM25.846 25.846h-19.692v-2.462h-2.462v-14.769h2.462v-2.462h19.692v2.462h2.462v14.769h-2.462v2.462zM30.769 24.615v3.692h-3.692v-3.692h3.692zM27.077 3.692h3.692v3.692h-3.692v-3.692z"></path>
</svg>
<svg id="icon-Hexagon" width="32" height="32" viewBox="0 0 32 32" x="1280" y="128">
<path d="M6.514 24.571h-0.8v5.714h5.714v-2.286h9.143v2.286h5.714v-5.714h-0.8l2.857-5.714h3.657v-5.714h-3.657l-2.857-5.714h0.8v-5.714h-5.714v2.286h-9.143v-2.286h-5.714v5.714h0.8l-2.857 5.714h-3.657v5.714h3.657l2.857 5.714zM10.286 29.143h-3.429v-3.429h3.429v3.429zM25.143 25.714v3.429h-3.429v-3.429h3.429zM30.857 14.286v3.429h-3.429v-3.429h3.429zM21.714 2.857h3.429v3.429h-3.429v-3.429zM6.857 6.286v-3.429h3.429v3.429h-3.429zM7.771 7.429h3.657v-2.286h9.143v2.286h3.657l2.857 5.714h-0.8v5.714h0.8l-2.857 5.714h-3.657v2.286h-9.143v-2.286h-3.657l-2.857-5.714h0.8v-5.714h-0.8l2.857-5.714zM1.143 17.714v-3.429h3.429v3.429h-3.429z"></path>
</svg>
<svg id="icon-RoutePim" width="32" height="32" viewBox="0 0 32 32" x="1344" y="128">
<path d="M9.382 6.97c-1.964 0-3.564 1.6-3.564 3.564s1.6 3.564 3.564 3.564c1.139 0 2.158-0.545 2.812-1.382l7.018 3.697c-0.109 0.339-0.158 0.691-0.158 1.067 0 1.964 1.6 3.564 3.564 3.564s3.564-1.6 3.564-3.564c0-1.964-1.6-3.564-3.564-3.564-1.273 0-2.388 0.667-3.018 1.673l-6.921-3.649c0.182-0.424 0.279-0.897 0.279-1.394s-0.097-0.97-0.279-1.394l6.921-3.649c0.63 1.006 1.745 1.673 3.018 1.673 1.964 0 3.564-1.6 3.564-3.564s-1.6-3.564-3.564-3.564c-1.964 0-3.564 1.6-3.564 3.564 0 0.376 0.061 0.727 0.158 1.067l-7.006 3.673c-0.655-0.848-1.673-1.382-2.824-1.382zM22.618 14.836c1.467 0 2.655 1.188 2.655 2.655s-1.188 2.655-2.655 2.655c-1.467 0-2.655-1.188-2.655-2.655s1.188-2.655 2.655-2.655zM22.618 0.933c1.467 0 2.655 1.188 2.655 2.655s-1.188 2.655-2.655 2.655c-1.467 0-2.655-1.188-2.655-2.655s1.188-2.655 2.655-2.655zM9.382 13.188c-1.467 0-2.655-1.188-2.655-2.655s1.188-2.655 2.655-2.655c1.467 0 2.655 1.188 2.655 2.655s-1.188 2.655-2.655 2.655zM12.061 26.182c0 0.824-0.279 1.455-0.848 1.903-0.558 0.448-1.37 0.667-2.412 0.667h-0.958v3.2h-0.945v-8.145h2.109c2.036 0 3.055 0.788 3.055 2.376zM7.842 27.939h0.849c0.836 0 1.442-0.133 1.818-0.412 0.376-0.267 0.558-0.703 0.558-1.309 0-0.533-0.182-0.945-0.533-1.2s-0.909-0.4-1.649-0.4h-1.055v3.321zM13.77 31.951v-8.145h0.945v8.145h-0.945zM20.558 31.951l-2.764-7.224h-0.049c0.049 0.57 0.073 1.248 0.073 2.036v5.188h-0.861v-8.145h1.43l2.57 6.727h0.049l2.606-6.727h1.418v8.145h-0.945v-5.248c0-0.606 0.024-1.261 0.073-1.964h-0.049l-2.788 7.212h-0.764z"></path>
</svg>
<svg id="icon-Save" width="32" height="32" viewBox="0 0 32 32" x="1408" y="128">
<path d="M0-0.001v32h32v-25.801l-6.199-6.199zM1.883 1.882h23.139l5.096 5.096v23.141h-28.234zM3 13.999v17h2v-15h22v15h2v-17zM11 1.8v9h14v-9h-2v7h-10v-7zM19.769 2.915h2v4.6h-2z"></path>
</svg>
<svg id="icon-Table" width="32" height="32" viewBox="0 0 32 32" x="1472" y="128">
<path d="M30.084 0.3h-28.168c-0.885 0-1.616 0.731-1.616 1.616v28.168c0 0.885 0.731 1.616 1.616 1.616h28.168c0.885 0 1.616-0.731 1.616-1.616v-28.168c0-0.904-0.712-1.616-1.616-1.616zM1.916 1.762h28.168c0.096 0 0.154 0.077 0.154 0.154v6.176h-28.476v-6.176c0-0.096 0.058-0.154 0.154-0.154zM22.773 9.555v5.734h-6.041v-5.734h6.041zM15.269 15.269h-6.041v-5.734h6.041v5.734zM7.765 15.269h-6.003v-5.734h6.003v5.734zM7.765 16.731v5.984h-6.003v-5.984h6.003zM9.227 16.731h6.041v5.984h-6.041v-5.984zM15.269 24.177v6.061h-6.041v-6.061h6.041zM16.731 24.177h6.041v6.061h-6.041v-6.061zM16.731 22.715v-5.984h6.041v5.984h-6.041zM24.235 16.731h6.003v5.984h-6.003v-5.984zM24.235 15.269v-5.734h6.003v5.734h-6.003zM1.762 30.084v-5.907h6.003v6.061h-5.849c-0.096 0-0.154-0.058-0.154-0.154zM30.084 30.238h-5.849v-6.061h6.003v5.907c0 0.096-0.058 0.154-0.154 0.154z"></path>
</svg>
<svg id="icon-Dots" width="32" height="32" viewBox="0 0 32 32" x="1536" y="128">
<path d="M18 8c0 1.105-0.895 2-2 2s-2-0.895-2-2c0-1.105 0.895-2 2-2s2 0.895 2 2zM18 16c0 1.105-0.895 2-2 2s-2-0.895-2-2c0-1.105 0.895-2 2-2s2 0.895 2 2zM18 24c0 1.105-0.895 2-2 2s-2-0.895-2-2c0-1.105 0.895-2 2-2s2 0.895 2 2z"></path>
</svg>
<svg id="icon-LogoLuciad" width="117" height="32" viewBox="0 0 117 32" x="1600" y="128">
<path d="M1.879 30.585v-21.317h-1.879v-3.449h6.203v21.353h11.843v3.413zM33.51 5.819h4.317s-0.035 13.949-0.035 15.641c0 4.316-0.313 9.909-9.156 9.909-8.843 0-9.121-5.594-9.121-9.909v-12.222h-1.915v-3.419h6.197v16.917c0 2.071 0.626 5.145 4.875 5.145 4.211 0 4.838-3.072 4.838-5.145v-16.917zM60.441 12.003v0.085h-3.441v-2.073c-1.105-0.437-2.385-0.694-3.724-0.704l-0.004-0c-2.614 0-4.818 0.909-6.608 2.726-1.801 1.809-2.702 4.021-2.702 6.637 0 2.585 0.901 4.765 2.702 6.54 1.803 1.777 4.011 2.665 6.624 2.665 0 0 4.159 0.329 7.157-2.293v3.977c-2.197 1.206-4.79 1.81-7.206 1.81-3.637 0-6.739-1.229-9.31-3.685-2.56-2.477-3.84-5.466-3.84-8.964 0-3.137 1.072-5.935 3.214-8.391 2.637-3.008 6.048-4.513 10.231-4.513 2.286 0 4.78 0.597 6.912 1.793v4.395c0.060 0.034 0.059 0.033 0.057 0.032l-0.062-0.035zM68.802 2.131c-0.005-1.178-0.961-2.131-2.14-2.131-0.003 0-0.007 0-0.010 0h0.001c-0.003 0-0.006-0-0.010-0-1.179 0-2.135 0.953-2.141 2.131v0.001c0 1.178 0.963 2.131 2.15 2.131 0.003 0 0.006 0 0.010 0 1.179 0 2.135-0.953 2.14-2.131v-0zM68.775 6.607v24.755h-4.283v-21.338h-1.915v-3.418h6.197zM86.31 20.595l-3.655-9.771c-0.034-0.103-0.070-0.173-0.105-0.173-0.035 0-0.070 0.069-0.105 0.173l-3.551 9.771h7.415zM95.115 30.572l-5.114 0.002-2.437-6.526h-9.921l-2.437 6.526h-4.805l8.495-21.338h-1.881v-3.418h8.009l10.134 24.752h-0.044zM101.042 9.201v17.92h4.629c1.497 0 6.685-0.069 6.685-8.943 0-8.839-4.979-8.977-6.754-8.977h-4.56zM105.567 5.819c3.97 0 11.072 0.309 11.072 12.395 0 11.842-7.451 12.325-10.897 12.325h-8.982v-21.301h-1.915v-3.42h10.722z"></path>
</svg>
<svg id="icon-LogoHexagon" width="159" height="32" viewBox="0 0 159 32" x="1792" y="128">
<path d="M15.016 30.362v-11.049h-10.404v11.049h-4.614l0.001-25.358h4.613v9.91h10.404v-9.91h4.614v25.358h-4.614z"></path>
<path d="M24.446 30.362v-25.358h17.306v4.186h-12.7v5.903h11.089v4.147h-11.089v6.936h12.698v4.186h-17.305z"></path>
<path d="M60.39 30.362l-5.679-9.226-5.69 9.226h-4.967l7.971-12.912-7.902-12.446h5.039l5.687 8.876 5.511-8.876h5.007l-7.797 12.486 7.898 12.872h-5.079z"></path>
<path d="M83.772 30.362l-1.648-4.863h-10.081l-1.644 4.863h-4.649l8.903-25.358h5.041l8.903 25.358h-4.825zM77.082 10.658l-3.611 10.697h7.223l-3.611-10.697z"></path>
<path d="M109.379 30.362l-2.674-2.791c-0.754 1.471-3.182 3.221-6.367 3.257-2.928 0.035-5.543-0.713-7.547-2.827-2.641-2.752-3.288-6.151-3.288-10.298s0.539-7.437 3.29-10.189c1.932-1.931 4.827-2.974 7.546-2.974 3.114 0 5.793 1.149 7.511 2.901 1.254 1.283 2.18 2.899 2.324 5.116h-4.724c-0.072-1.005-0.566-1.678-1.105-2.329-0.893-1.038-2.287-1.539-4.039-1.539-1.47 0-3.156 0.646-4.154 1.715-1.748 1.825-1.963 4.975-1.963 7.297 0 2.326 0.249 5.58 2 7.405 1.007 1.069 2.648 1.61 4.118 1.61 1.64 0 2.929-0.574 3.791-1.469 1.352-1.43 1.643-3.001 1.643-4.937h-6.044v-3.828h10.515v13.878h-0.83z"></path>
<path d="M131.733 27.967c-1.931 1.931-4.577 2.86-7.296 2.86-2.71 0-5.361-0.929-7.294-2.86-2.755-2.756-3.22-6.117-3.22-10.265s0.465-7.547 3.22-10.298c1.933-1.931 4.584-2.864 7.294-2.864 2.719 0 5.364 0.933 7.296 2.864 2.753 2.751 3.222 6.15 3.222 10.298s-0.468 7.509-3.222 10.265zM128.45 10.405c-1.005-1.069-2.547-1.681-4.013-1.681-1.459 0-3.008 0.611-4.004 1.681-1.747 1.825-1.825 4.975-1.825 7.297 0 2.326 0.078 5.437 1.825 7.261 0.996 1.076 2.544 1.681 4.004 1.681 1.466 0 3.008-0.605 4.013-1.681 1.749-1.824 1.824-4.935 1.824-7.261-0.001-2.322-0.076-5.472-1.824-7.297z"></path>
<path d="M154.001 30.362l-10.979-17.416v17.416h-4.543v-25.358h4.898l10.836 17.166v-17.166h4.542v25.358h-4.753z"></path>
</svg>
<svg id="icon-LogoHexagon-bug" width="27" height="32" viewBox="0 0 27 32" x="0" y="192">
<path d="M13.004 16.744v6.642h-3.419l-1.994-3.519zM4.324 16.13l-3.69 6.394v-12.909zM13.004 2.362v13.653l-5.725 3.303-2.013-3.554zM4.904 15.127l-3.722-6.57 11.273-6.511zM4.687 16.768l1.728 3.051-5.234 3.021zM6.726 20.367l1.71 3.019h-6.938zM13.004 24.018v5.403l-3.061-5.403zM18.704 23.386l7.484-12.832v12.832zM25.141 24.018l-10.26 5.926 3.454-5.926zM14.001 23.386v-7.217l11.693-6.751-8.145 13.968zM14.001 29.468v-5.45h3.177zM14.001 15.437v-15.436l-13.995 8.083-0.006 15.934h8.794l4.521 7.982 13.873-8.011v-16.165l-13.187 7.614z"></path>
</svg>
</svg>
