<!-- Generated by IcoMoon.io -->
<svg version="1.1" xmlns="http://www.w3.org/2000/svg" width="32" height="32" viewBox="0 0 32 32">
<title>Defense</title>
<path d="M27.648 3.84c-0.64 0-6.528-0.384-10.496-3.456-0.32-0.256-0.704-0.384-1.152-0.384-0.384 0-0.832 0.128-1.152 0.384-3.968 3.136-9.856 3.456-10.56 3.456-1.024 0.064-1.728 0.896-1.728 1.92v7.68c0 12.608 12.16 18.176 12.672 18.368 0.256 0.128 0.512 0.192 0.768 0.192s0.512-0.064 0.768-0.192 12.672-5.76 12.672-18.368v-7.68c0-1.024-0.768-1.792-1.792-1.92zM3.84 5.76c0-0.32 0.256-0.576 0.576-0.64 1.152-0.064 7.040-0.448 11.264-3.712 0.064-0.128 0.192-0.128 0.32-0.128 0.064 0 0.192 0 0.32 0.128 3.968 3.008 9.28 3.584 10.944 3.712l-19.392 19.392c-2.24-2.688-4.032-6.336-4.032-11.072v-7.68zM16.256 30.656c-0.192 0.064-0.384 0.064-0.512 0-0.256-0.128-3.84-1.792-7.040-5.184l19.456-19.456v7.424c0 11.776-11.392 17.024-11.904 17.216z"></path>
</svg>
