<!-- Generated by IcoMoon.io -->
<svg version="1.1" xmlns="http://www.w3.org/2000/svg" width="32" height="32" viewBox="0 0 32 32">
<title>Delete</title>
<path d="M29.562 4.75h-6.705v-2.25c0-1.2-1.067-2.25-2.286-2.25h-9.143c-1.219 0-2.286 1.050-2.286 2.25v2.25h-6.705v1.5h2.286l3.048 25.5h16.457l3.048-25.5h2.286v-1.5zM10.667 2.5c0-0.45 0.305-0.75 0.762-0.75h9.143c0.457 0 0.762 0.3 0.762 0.75v2.25h-10.667v-2.25zM22.857 30.25h-13.714l-2.895-24h19.505l-2.895 24zM15.238 11.941h1.524v12.19h-1.524v-12.19zM10.667 11.941h1.524v12.19h-1.524v-12.19zM19.809 11.941h1.524v12.19h-1.524v-12.19z"></path>
</svg>
