<!-- Generated by IcoMoon.io -->
<svg version="1.1" xmlns="http://www.w3.org/2000/svg" width="32" height="32" viewBox="0 0 32 32">
<title>DrawText</title>
<path d="M7.273 11.636h1.455c0 0 0-2.909 1.455-2.909s4.364 0 4.364 0v13.091c0 0 0 1.455-1.455 1.455s-1.455 0-1.455 0v1.455h8.727v-1.455c0 0 0 0-1.455 0s-1.455-1.455-1.455-1.455v-13.091c0 0 2.909 0 4.364 0s1.455 2.909 1.455 2.909h1.455v-4.364h-17.454v4.364zM1.727 1.727h1.427v-1.427h-2.855v2.855h1.427zM0.3 31.7h2.855v-1.427h-1.427v-1.427h-1.427zM0.3 6.009h1.427v2.855h-1.427v-2.855zM0.3 11.718h1.427v2.855h-1.427v-2.855zM0.3 17.427h1.427v2.855h-1.427v-2.855zM0.3 23.136h1.427v2.855h-1.427v-2.855zM28.845 31.7h2.855v-2.855h-1.427v1.427h-1.427zM31.7 0.3h-2.855v1.427h1.427v1.427h1.427zM30.273 23.136h1.427v2.855h-1.427v-2.855zM30.273 17.427h1.427v2.855h-1.427v-2.855zM30.273 11.718h1.427v2.855h-1.427v-2.855zM30.273 6.009h1.427v2.855h-1.427v-2.855zM6.009 30.273h2.855v1.427h-2.855v-1.427zM11.718 30.273h2.855v1.427h-2.855v-1.427zM17.427 30.273h2.855v1.427h-2.855v-1.427zM23.136 30.273h2.855v1.427h-2.855v-1.427zM6.009 0.3h2.855v1.427h-2.855v-1.427zM11.718 0.3h2.855v1.427h-2.855v-1.427zM17.427 0.3h2.855v1.427h-2.855v-1.427zM23.136 0.3h2.855v1.427h-2.855v-1.427z"></path>
</svg>
