<!-- Generated by IcoMoon.io -->
<svg version="1.1" xmlns="http://www.w3.org/2000/svg" width="32" height="32" viewBox="0 0 32 32">
<title>Error</title>
<path d="M17.312 24.228h-2.623v-2.503h2.623v2.503zM16.477 20.056h-1.073l-0.596-7.272v-5.126h2.146v5.126l-0.477 7.272zM16 31.5c8.585 0 15.5-6.914 15.5-15.497s-6.915-15.497-15.5-15.497c-8.585 0-15.5 6.914-15.5 15.497s6.915 15.497 15.5 15.497zM16 1.698c7.869 0 14.308 6.437 14.308 14.305s-6.438 14.305-14.308 14.305c-7.869 0-14.308-6.437-14.308-14.305s6.438-14.305 14.308-14.305z"></path>
</svg>
