<!-- Generated by IcoMoon.io -->
<svg version="1.1" xmlns="http://www.w3.org/2000/svg" width="32" height="32" viewBox="0 0 32 32">
<title>Forbidden</title>
<path d="M16 32c8.861 0 16-7.138 16-16s-7.138-16-16-16c-8.861 0-16 7.138-16 16s7.138 16 16 16zM16 1.231c8.123 0 14.769 6.646 14.769 14.769s-6.646 14.769-14.769 14.769c-8.123 0-14.769-6.646-14.769-14.769s6.646-14.769 14.769-14.769zM5.384 4.421c-0.001 0-0.001 0-0.002 0-0.438 0-0.794 0.364-0.794 0.813 0 0.229 0.093 0.437 0.241 0.584l20.833 21.34c0.144 0.154 0.348 0.25 0.572 0.25 0.438 0 0.794-0.364 0.794-0.813 0-0.23-0.094-0.438-0.244-0.586l-20.833-21.341c-0.144-0.152-0.346-0.246-0.569-0.246v0zM26.21 4.424c-0.214 0.006-0.406 0.1-0.545 0.246l-20.83 21.341c-0.15 0.148-0.244 0.356-0.244 0.586 0 0.449 0.356 0.813 0.794 0.813 0.225 0 0.428-0.096 0.572-0.25l20.83-21.341c0.148-0.148 0.24-0.354 0.24-0.583 0-0.449-0.355-0.813-0.794-0.813-0.008 0-0.017 0-0.025 0h0.002z"></path>
</svg>
