<!-- Generated by IcoMoon.io -->
<svg version="1.1" xmlns="http://www.w3.org/2000/svg" width="32" height="32" viewBox="0 0 32 32">
<title>Hand</title>
<path d="M20.825 15.67h-1.421v-12.851c0-0.688-0.711-1.377-1.421-1.377v0c-0.711 0.23-1.421 0.688-1.421 1.606v0 12.851h-1.184v-12.851c0-1.377 1.184-2.524 2.605-2.524v0c1.658-0.23 2.842 0.918 2.842 2.524v0 12.622zM24.852 15.67h-1.184v-10.557c0-0.688-0.711-1.377-1.421-1.377v0c-0.711 0-1.421 0.688-1.421 1.377v0h-1.421c0-1.377 1.184-2.524 2.605-2.524v0c1.421 0 2.605 1.147 2.605 2.524v0 10.557h0.237zM27.931 30.128c-0.947 0.918-2.132 1.377-3.553 1.377v0h-9.948c-0.947 0-1.895-0.459-2.605-1.147v0 0 0c0 0-7.106-10.557-8.053-12.393v0c-0.237-0.459-0.711-1.147-0.711-2.065v0c0-1.606 1.421-2.983 3.079-2.983v0c1.184 0 2.132 0.459 2.605 1.377v0l2.369 2.754v-10.327c0-1.377 1.184-2.524 2.605-2.524v0c1.421 0 2.605 1.147 2.605 2.524v0h-1.184c0-0.688-0.711-1.377-1.421-1.377v0c-0.711 0-1.421 0.688-1.421 1.377v0 13.769l-4.5-5.508c-0.237-0.459-0.947-0.918-1.658-0.918v0c-0.947 0-1.895 0.918-1.895 1.836v0c0 0.459 0.237 0.918 0.474 1.377v0c0.474 0.918 2.605 3.901 4.5 6.885v0c1.658 2.754 3.316 5.278 3.553 5.508v0c0.474 0.23 0.947 0.459 1.658 0.459v0h9.948c1.184 0 2.132-0.23 2.605-0.918v0c0.474-0.459 0.947-1.147 0.947-2.295v0-16.523c0-0.688-0.711-1.377-1.421-1.377v0c-0.947-0.229-1.658 0.459-1.658 1.377v0h-1.184c0-1.377 1.184-2.524 2.605-2.524v0c1.421 0 2.605 1.147 2.605 2.524v0 16.523c0 0 0 0 0 0v0c0.237 1.377-0.237 2.524-0.947 3.213v0z"></path>
</svg>
