<!-- Generated by IcoMoon.io -->
<svg version="1.1" xmlns="http://www.w3.org/2000/svg" width="32" height="32" viewBox="0 0 32 32">
<title>Info</title>
<path d="M16 31.385c8.521 0 15.385-6.864 15.385-15.385s-6.864-15.385-15.385-15.385c-8.521 0-15.385 6.864-15.385 15.385s6.864 15.385 15.385 15.385zM16 1.799c7.811 0 14.201 6.391 14.201 14.201s-6.391 14.201-14.201 14.201c-7.811 0-14.201-6.391-14.201-14.201s6.391-14.201 14.201-14.201zM17.183 8.899c0 0.654-0.53 1.183-1.183 1.183s-1.183-0.53-1.183-1.183c0-0.654 0.53-1.183 1.183-1.183s1.183 0.53 1.183 1.183zM14.817 12.45h2.367v10.651h-2.367v-10.651zM17.183 20.734h2.367v2.367h-2.367v-2.367zM12.45 12.45h2.367v2.367h-2.367v-2.367z"></path>
</svg>
