<!-- Generated by IcoMoon.io -->
<svg version="1.1" xmlns="http://www.w3.org/2000/svg" width="32" height="32" viewBox="0 0 32 32">
<title>Layer</title>
<path d="M15.553 3.105l-11.789 5.895 12.236 6.117 12.236-6.117-11.789-5.895-0.447 0.895zM16 5.117l7.764 3.883-7.764 3.883-7.764-3.883zM9.553 12.105l-5.789 2.895 12.236 6.117 12.236-6.117-5.789-2.895-0.895 1.789 2.211 1.105-7.764 3.883-7.764-3.883 2.211-1.105zM9.553 18.105l-5.789 2.895 12.236 6.117 12.236-6.117-5.789-2.895-0.895 1.789 2.211 1.105-7.764 3.883-7.764-3.883 2.211-1.105z"></path>
</svg>
