<!-- Generated by IcoMoon.io -->
<svg version="1.1" xmlns="http://www.w3.org/2000/svg" width="32" height="32" viewBox="0 0 32 32">
<title>LineStroke</title>
<path d="M-0.001 5h32.002v-2h-32.002v2zM-0.001 13h2v-2h-2v2zM6 13h2v-2h-2v2zM12 13h2v-2h-2v2zM18 13h2v-2h-2v2zM24 13h2v-2h-2v2zM30.001 13h2v-2h-2v2zM6 21h6v-2h-6v2zM16 21h6v-2h-6v2zM26 21h6v-2h-6v2zM6 29.001h6v-2h-6v2zM-0.001 29.001h2v-2h-2v2zM22 29.001h6v-2h-6v2zM16 29.001h2v-2h-2v2zM30.001 29.001h2v-2h-2v2zM-0.001 21h2v-2h-2v2z"></path>
</svg>
