<!-- Generated by IcoMoon.io -->
<svg version="1.1" xmlns="http://www.w3.org/2000/svg" width="32" height="32" viewBox="0 0 32 32">
<title>LineStyles</title>
<path d="M0 18.909h2.909v1.455h-2.909v-1.455zM0 4.364h2.909v1.455h-2.909v-1.455zM0 26.182h10.182v1.455h-10.182v-1.455zM26.182 26.182h5.818v1.455h-5.818v-1.455zM13.091 26.182h10.182v1.455h-10.182v-1.455zM26.182 18.909h5.818v1.455h-5.818v-1.455zM5.818 18.909h4.364v1.455h-4.364v-1.455zM13.091 18.909h2.909v1.455h-2.909v-1.455zM18.909 18.909h4.364v1.455h-4.364v-1.455zM13.091 11.636h13.091v1.455h-13.091v-1.455zM29.091 11.636h2.909v1.455h-2.909v-1.455zM0 11.636h10.182v1.455h-10.182v-1.455zM29.091 4.364h2.909v1.455h-2.909v-1.455zM5.818 4.364h10.182v1.455h-10.182v-1.455zM18.909 4.364h7.273v1.455h-7.273v-1.455z"></path>
</svg>
