<!-- Generated by IcoMoon.io -->
<svg version="1.1" xmlns="http://www.w3.org/2000/svg" width="32" height="32" viewBox="0 0 32 32">
<title>LineColor</title>
<path d="M18.051 26.039c1.759-1.759 1.993-3.516 1.642-5.041v0l3.282-3.282-0.703-0.82 9.143-9.143-5.744-5.861-9.26 9.143-0.82-0.82-3.165 3.165c-1.406-0.351-3.165-0.117-5.158 1.876-4.102 4.102 0.82 10.784-6.681 11.605 7.502 4.102 14.184 2.462 17.465-0.82zM25.553 3.65l4.102 4.102-8.323 8.323-4.102-4.219 8.323-8.205zM15.589 11.856l5.861 5.744-1.759 1.759-5.861-5.744 1.759-1.759zM6.447 21.233c0.117-1.876 0.234-3.751 1.642-5.158 3.048-3.048 5.275-1.406 7.502 0.82v0c2.579 2.579 4.572 5.392 1.642 8.205-2.696 2.696-7.62 3.985-13.363 1.876 2.345-1.289 2.462-3.751 2.579-5.744z"></path>
</svg>
