<!-- Generated by IcoMoon.io -->
<svg version="1.1" xmlns="http://www.w3.org/2000/svg" width="117" height="32" viewBox="0 0 117 32">
<title>LogoLuciad</title>
<path d="M1.879 30.585v-21.317h-1.879v-3.449h6.203v21.353h11.843v3.413zM33.51 5.819h4.317s-0.035 13.949-0.035 15.641c0 4.316-0.313 9.909-9.156 9.909-8.843 0-9.121-5.594-9.121-9.909v-12.222h-1.915v-3.419h6.197v16.917c0 2.071 0.626 5.145 4.875 5.145 4.211 0 4.838-3.072 4.838-5.145v-16.917zM60.441 12.003v0.085h-3.441v-2.073c-1.105-0.437-2.385-0.694-3.724-0.704l-0.004-0c-2.614 0-4.818 0.909-6.608 2.726-1.801 1.809-2.702 4.021-2.702 6.637 0 2.585 0.901 4.765 2.702 6.54 1.803 1.777 4.011 2.665 6.624 2.665 0 0 4.159 0.329 7.157-2.293v3.977c-2.197 1.206-4.79 1.81-7.206 1.81-3.637 0-6.739-1.229-9.31-3.685-2.56-2.477-3.84-5.466-3.84-8.964 0-3.137 1.072-5.935 3.214-8.391 2.637-3.008 6.048-4.513 10.231-4.513 2.286 0 4.78 0.597 6.912 1.793v4.395c0.060 0.034 0.059 0.033 0.057 0.032l-0.062-0.035zM68.802 2.131c-0.005-1.178-0.961-2.131-2.14-2.131-0.003 0-0.007 0-0.010 0h0.001c-0.003 0-0.006-0-0.010-0-1.179 0-2.135 0.953-2.141 2.131v0.001c0 1.178 0.963 2.131 2.15 2.131 0.003 0 0.006 0 0.010 0 1.179 0 2.135-0.953 2.14-2.131v-0zM68.775 6.607v24.755h-4.283v-21.338h-1.915v-3.418h6.197zM86.31 20.595l-3.655-9.771c-0.034-0.103-0.070-0.173-0.105-0.173-0.035 0-0.070 0.069-0.105 0.173l-3.551 9.771h7.415zM95.115 30.572l-5.114 0.002-2.437-6.526h-9.921l-2.437 6.526h-4.805l8.495-21.338h-1.881v-3.418h8.009l10.134 24.752h-0.044zM101.042 9.201v17.92h4.629c1.497 0 6.685-0.069 6.685-8.943 0-8.839-4.979-8.977-6.754-8.977h-4.56zM105.567 5.819c3.97 0 11.072 0.309 11.072 12.395 0 11.842-7.451 12.325-10.897 12.325h-8.982v-21.301h-1.915v-3.42h10.722z"></path>
</svg>
