<!-- Generated by IcoMoon.io -->
<svg version="1.1" xmlns="http://www.w3.org/2000/svg" width="32" height="32" viewBox="0 0 32 32">
<title>Picture</title>
<path d="M0 4.413v23.174h31.999v-23.174h-31.999zM4.196 26.213l3.076-8.093 0.836-0.149 1.613 5.062 1.583-4.942 0.866 0.343 2.971 7.242 3.584-4.838 0.224-0.045 1-0.194 1.523 3.733 1.269-3.658 0.821 0.269 3.643 5.286-23.010-0.015zM7.78 16.776l1.777-4.704 1.956 4.778-0.986-0.403-0.806 2.523-0.776-2.419-1.165 0.224zM19.815 19.36l1.389-1.881 1.239 1.807-0.747-0.314-0.239 2.359-0.164 0.015-0.597-2.165-0.881 0.179zM30.76 26.363h-1.941l-7.585-11.005-5.779 7.824-5.943-14.454-6.69 17.635h-1.598v-20.726h29.535v20.726zM24.056 14.537c1.866 0 3.39-1.523 3.39-3.39s-1.523-3.39-3.39-3.39c-1.866 0-3.39 1.523-3.39 3.39s1.523 3.39 3.39 3.39zM24.056 8.773c1.299 0 2.374 1.060 2.374 2.374 0 1.299-1.060 2.374-2.374 2.374-1.299 0-2.374-1.060-2.374-2.374 0-1.299 1.075-2.374 2.374-2.374z"></path>
</svg>
