<!-- Generated by IcoMoon.io -->
<svg version="1.1" xmlns="http://www.w3.org/2000/svg" width="32" height="32" viewBox="0 0 32 32">
<title>Raster</title>
<path d="M8.615 14.854c1.89 0 3.427-1.537 3.427-3.426 0-1.89-1.537-3.428-3.427-3.428s-3.427 1.537-3.427 3.427c0 1.89 1.537 3.427 3.427 3.427zM8.615 9.231c1.211 0 2.196 0.986 2.196 2.196s-0.985 2.196-2.196 2.196-2.196-0.985-2.196-2.196 0.985-2.197 2.196-2.197zM0.615 0v32h30.769v-32h-30.769zM1.846 1.231h28.308v16.447l-6.353-5.824c-0.121-0.11-0.279-0.165-0.443-0.161-0.163 0.007-0.317 0.079-0.427 0.2l-6.027 6.601-2.919-2.919c-0.23-0.23-0.598-0.241-0.842-0.027l-10.298 9.067h-0.998v-23.385zM30.154 30.769h-28.308v-4.923h28.308v4.923zM4.707 24.615l8.815-7.761 6.34 6.339c0.241 0.241 0.63 0.241 0.87 0s0.241-0.63 0-0.87l-2.958-2.958 5.65-6.187 6.73 6.169v5.268h-25.447z"></path>
</svg>
