<!-- Generated by IcoMoon.io -->
<svg version="1.1" xmlns="http://www.w3.org/2000/svg" width="32" height="32" viewBox="0 0 32 32">
<title>Route</title>
<path d="M5.913 10.669c-2.993 0-5.432 2.385-5.432 5.313s2.439 5.313 5.432 5.313c1.737 0 3.289-0.813 4.286-2.060l10.697 5.512c-0.166 0.506-0.24 1.030-0.24 1.59 0 2.928 2.439 5.313 5.432 5.313s5.432-2.385 5.432-5.313c0-2.928-2.439-5.313-5.432-5.313-1.94 0-3.64 0.994-4.6 2.494l-10.549-5.44c0.277-0.633 0.425-1.337 0.425-2.078s-0.148-1.446-0.425-2.078l10.549-5.44c0.961 1.5 2.66 2.494 4.6 2.494 2.993 0 5.432-2.385 5.432-5.313s-2.439-5.313-5.432-5.313c-2.993 0-5.432 2.385-5.432 5.313 0 0.56 0.092 1.084 0.24 1.59l-10.679 5.476c-0.998-1.265-2.55-2.060-4.305-2.060zM26.087 22.397c2.235 0 4.046 1.771 4.046 3.958s-1.811 3.958-4.046 3.958c-2.235 0-4.046-1.771-4.046-3.958s1.811-3.958 4.046-3.958zM26.087 1.669c2.235 0 4.046 1.771 4.046 3.958s-1.811 3.958-4.046 3.958c-2.235 0-4.046-1.771-4.046-3.958s1.811-3.958 4.046-3.958zM5.913 19.94c-2.235 0-4.046-1.771-4.046-3.958s1.811-3.958 4.046-3.958c2.235 0 4.046 1.771 4.046 3.958s-1.811 3.958-4.046 3.958z"></path>
</svg>
