<!-- Generated by IcoMoon.io -->
<svg version="1.1" xmlns="http://www.w3.org/2000/svg" width="32" height="32" viewBox="0 0 32 32">
<title>Search</title>
<path d="M27.249 13.774c0-7.429-6.046-13.474-13.474-13.474s-13.474 6.046-13.474 13.474c0 7.429 6.046 13.474 13.474 13.474 3.438 0 6.599-1.304 8.97-3.438l7.765 7.765 1.067-1.067-7.765-7.745c2.134-2.391 3.438-5.532 3.438-8.99zM1.802 13.774c0-6.599 5.374-11.973 11.973-11.973s11.973 5.374 11.973 11.973c0 6.599-5.374 11.973-11.973 11.973-6.599 0.020-11.973-5.354-11.973-11.973z"></path>
</svg>
