<!-- Generated by IcoMoon.io -->
<svg version="1.1" xmlns="http://www.w3.org/2000/svg" width="32" height="32" viewBox="0 0 32 32">
<title>Shapes</title>
<path d="M2 2v12h12v-12zM4 4h8v8h-8zM23.999 1.998c-1.472 0-2.958 0.487-4.102 1.504s-1.898 2.582-1.897 4.499c0 3.302 2.697 6.001 5.999 6.001s6.002-2.7 6.001-6.003c-0-1.917-0.755-3.48-1.899-4.497s-2.629-1.504-4.102-1.504zM23.999 3.998c1.028 0 2.042 0.348 2.773 0.998s1.228 1.588 1.228 3.005c0.001 2.221-1.78 3.999-4.001 3.999s-4-1.778-3.999-3.999v-0.002c-0-1.417 0.495-2.353 1.226-3.003s1.745-0.998 2.773-0.998zM8 16.765l-6.617 13.234h13.234zM8 21.238l3.383 6.762h-6.766zM17.585 24l6.414 6.414 6.414-6.414-6.414-6.414zM20.413 24l3.585-3.585 3.585 3.585-3.585 3.585z"></path>
</svg>
