<!-- Generated by IcoMoon.io -->
<svg version="1.1" xmlns="http://www.w3.org/2000/svg" width="32" height="32" viewBox="0 0 32 32">
<title>Unknown</title>
<path d="M16 0.317c8.643 0 15.696 7.059 15.68 15.69-0.016 8.662-7.059 15.699-15.69 15.677-8.656-0.022-15.658-7.027-15.67-15.68-0.013-8.634 7.037-15.686 15.68-15.686zM30.198 15.997c0-7.821-6.336-14.176-14.192-14.192-7.83-0.016-14.195 6.339-14.205 14.192-0.010 7.821 6.346 14.173 14.189 14.195 7.811 0.022 14.211-6.368 14.208-14.195zM16.874 21.066c-0.669 0-1.322 0-1.99 0 0-0.397-0.022-0.787 0.003-1.174 0.051-0.781 0.234-1.533 0.64-2.214 0.317-0.531 0.723-0.989 1.174-1.408 0.56-0.522 1.123-1.037 1.674-1.571 0.323-0.314 0.608-0.666 0.758-1.101 0.358-1.046 0.128-1.978-0.566-2.81-1.155-1.379-3.085-1.427-4.269-0.736-0.746 0.435-1.194 1.101-1.453 1.904-0.118 0.358-0.198 0.73-0.304 1.123-0.688-0.080-1.392-0.166-2.122-0.253 0.029-0.182 0.048-0.352 0.080-0.522 0.182-0.947 0.509-1.83 1.13-2.586 0.752-0.922 1.734-1.459 2.89-1.68 1.206-0.23 2.41-0.208 3.584 0.176 1.501 0.486 2.611 1.44 3.117 2.957 0.483 1.456 0.246 2.832-0.707 4.064-0.605 0.781-1.357 1.414-2.064 2.093-0.31 0.298-0.627 0.598-0.896 0.934-0.4 0.496-0.554 1.098-0.602 1.725-0.035 0.349-0.051 0.704-0.077 1.078zM14.752 25.28c0-0.787 0-1.565 0-2.358 0.787 0 1.568 0 2.358 0 0 0.784 0 1.565 0 2.358-0.781 0-1.565 0-2.358 0z"></path>
</svg>
