<!-- Generated by IcoMoon.io -->
<svg version="1.1" xmlns="http://www.w3.org/2000/svg" width="32" height="32" viewBox="0 0 32 32">
<title>Unlocked</title>
<path d="M8.587 11.071v-2.376c0-3.92 3.336-7.127 7.413-7.127 1.977 0 3.83 0.831 5.189 2.019h1.483c0 0 0 0 0 0-0.741-0.95-1.853-1.782-1.977-1.782-1.359-0.713-2.965-1.188-4.695-1.188-4.695 0-8.525 3.682-8.525 8.196v2.376h-3.954v20.193h24.958v-20.193h-19.892zM27.367 30.194h-22.734v-18.055h22.734v18.055zM18.471 19.266c0-1.307-1.112-2.494-2.595-2.494-1.236 0.119-2.471 1.188-2.471 2.494 0 1.069 0.741 1.9 1.73 2.257l0.247 0.119v3.92h1.112v-3.801l0.247-0.119c1.112-0.475 1.73-1.307 1.73-2.376z"></path>
</svg>
