<!-- Generated by IcoMoon.io -->
<svg version="1.1" xmlns="http://www.w3.org/2000/svg" width="32" height="32" viewBox="0 0 32 32">
<title>Center</title>
<path d="M15.429 19.994h1.141v-3.424h3.424v-1.141h-3.424v-3.424h-1.141v3.424h-3.424v1.141h3.424zM16.571 2.875v-2.283h-1.141v2.283c-6.848 0.342-12.212 5.706-12.554 12.554h-2.283v1.141h2.283c0.342 6.848 5.706 12.212 12.554 12.554v2.283h1.141v-2.283c6.848-0.342 12.212-5.706 12.554-12.554h2.283v-1.141h-2.283c-0.342-6.848-5.706-12.212-12.554-12.554zM27.984 16.571c-0.342 6.163-5.25 11.070-11.413 11.413v-2.283h-1.141v2.283c-6.163-0.342-11.070-5.25-11.413-11.413h2.283v-1.141h-2.283c0.342-6.163 5.25-11.070 11.413-11.413v2.283h1.141v-2.283c6.163 0.342 11.070 5.25 11.413 11.413h-2.283v1.141h2.283z"></path>
</svg>
