<!-- Generated by IcoMoon.io -->
<svg version="1.1" xmlns="http://www.w3.org/2000/svg" width="32" height="32" viewBox="0 0 32 32">
<title>Close</title>
<path d="M2.863 1.862c-0.001 0-0.001 0-0.002 0-0.552 0-1 0.448-1 1 0 0.282 0.117 0.537 0.304 0.718l26.254 26.248c0.182 0.189 0.438 0.307 0.721 0.307 0.552 0 1-0.448 1-1 0-0.283-0.118-0.539-0.307-0.721l-26.254-26.25c-0.182-0.187-0.436-0.303-0.717-0.303v0zM29.107 1.866c-0.27 0.008-0.512 0.123-0.687 0.302l-26.25 26.25c-0.189 0.182-0.307 0.438-0.307 0.721 0 0.552 0.448 1 1 1 0.283 0 0.539-0.118 0.721-0.307l26.25-26.25c0.187-0.182 0.303-0.436 0.303-0.717 0-0.552-0.448-1-1-1-0.010 0-0.021 0-0.031 0h0.002z"></path>
</svg>
