<!-- Generated by IcoMoon.io -->
<svg version="1.1" xmlns="http://www.w3.org/2000/svg" width="32" height="32" viewBox="0 0 32 32">
<title>Copy</title>
<path d="M7.781 3.567v28.438h18.162l6.074-7.703v-20.734zM9.781 5.567h20.236v18.041l-5.043 6.396h-15.193zM29.949 22.999v7.045h-4.744v1.955h6.701v-9zM0 0.028v28.145h8.381v-2h-6.381v-24.145h20.145v2.734h2v-4.734zM12.063 8.866v2h16v-2zM12.063 12.374v2h16v-2zM12.045 15.974v2h11.955v-2zM4.063 5.187v2h3.938v-2zM4.063 8.696v2h3.938v-2zM4.045 12.294v2h3.955v-2z"></path>
</svg>
