<!-- Generated by IcoMoon.io -->
<svg version="1.1" xmlns="http://www.w3.org/2000/svg" width="32" height="32" viewBox="0 0 32 32">
<title>Folder</title>
<path d="M24.512 26.997h-21.907c-1.162 0-2.105-1.012-2.105-2.267v-17.461c0-1.255 0.944-2.267 2.105-2.267h12.669c1.579 0 2.414 0.881 3.085 1.686 0.526 0.637 1.615 1.948 2.033 2.454h4.102c1.162 0 2.105 1.012 2.105 2.267 0 0.319-0.236 0.562-0.544 0.562s-0.544-0.244-0.544-0.562c0-0.637-0.454-1.143-1.016-1.143h-4.356c-0.163 0-0.309-0.075-0.417-0.187-0.018-0.019-1.561-1.873-2.196-2.66-0.672-0.843-1.234-1.293-2.251-1.293h-12.669c-0.563 0-1.016 0.506-1.016 1.143v17.461c0 0.637 0.454 1.143 1.016 1.143h21.907c0.309 0 0.544 0.244 0.544 0.562s-0.254 0.562-0.544 0.562zM24.53 26.997c0 0-0.018 0-0.018 0h-21.889c-1.162 0-2.105-0.899-2.105-2.005 0-0.075 0.018-0.15 0.054-0.225 0.181-0.412 4.392-10.286 4.9-11.185 0.054-0.094 0.109-0.187 0.163-0.281 0.417-0.731 0.799-1.424 1.869-1.424l21.889-0.112c1.162 0 2.105 0.899 2.105 2.005 0 0.075-0.018 0.15-0.036 0.225-0.399 0.937-3.83 9.461-4.374 10.379-0.109 0.169-0.2 0.356-0.309 0.562-0.49 0.918-1.071 2.061-2.251 2.061zM1.589 25.086c0.054 0.431 0.49 0.787 1.016 0.787h21.907c0.49 0 0.835-0.6 1.289-1.461 0.109-0.206 0.218-0.431 0.345-0.637 0.381-0.618 2.741-6.351 4.265-10.117-0.054-0.431-0.49-0.787-1.016-0.787l-21.907 0.131c-0.417 0-0.526 0.131-0.926 0.862-0.054 0.094-0.109 0.187-0.163 0.3-0.399 0.693-3.557 8-4.81 10.922z"></path>
</svg>
