<!-- Generated by IcoMoon.io -->
<svg version="1.1" xmlns="http://www.w3.org/2000/svg" width="32" height="32" viewBox="0 0 32 32">
<title>FolderClosed</title>
<path d="M26.99 26.997h-24.168c-1.282 0-2.322-1.012-2.322-2.267v-17.461c0-1.255 1.041-2.267 2.322-2.267h13.977c1.742 0 2.663 0.881 3.403 1.686 0.58 0.637 1.782 1.948 2.243 2.454h4.525c1.282 0 2.102 0.545 2.102 1.8 0 0.319-0.040-0.105-0.38-0.105s-0.563 0.156-0.563-0.162c0-0.637-0.538-0.41-1.158-0.41h-4.806c-0.18 0-0.341-0.075-0.46-0.187-0.020-0.019-1.722-1.873-2.423-2.66-0.741-0.843-1.361-1.293-2.483-1.293h-13.977c-0.621 0-1.121 0.506-1.121 1.143v17.461c0 0.637 0.501 1.143 1.121 1.143h24.168c0.341 0 0.6 0.244 0.6 0.562s-0.28 0.562-0.6 0.562zM27.010 26.997h-24.168c-1.282 0-2.322-0.899-2.322-2.005 0-0.075 0.020-0.15 0.060-0.225 0.126-0.879 0.763-7.619 1.177-10.852 0.060-0.094 0.341-2.287 0.4-2.381 0.203-0.831 0.881-1.424 2.062-1.424l24.957-0.045c1.282 0 2.322 0.899 2.322 2.005 0 0.075-0.020 0.15-0.040 0.225-0.175 1.37-1.43 10.561-1.626 12.112-0.304 0.969-0.11 0.389-0.451 1.295-0.541 0.918-1.071 1.294-2.373 1.294zM1.701 25.086c0.060 0.431 0.541 0.787 1.121 0.787h24.168c0.541 0 0.958 0.1 1.422-0.761 0.12-0.206 0.339-1.098 0.381-1.337 0.31-1.785 1.112-7.884 1.506-11.817-0.060-0.431-0.43-0.82-1.011-0.82l-25.087 0.098c-0.46 0-0.617 0.031-0.911 0.395-0.327 1.767-0.341 2.654-0.658 5.067-0.44 3.426-0.688 5.333-0.93 8.389z"></path>
</svg>
