<!-- Generated by IcoMoon.io -->
<svg version="1.1" xmlns="http://www.w3.org/2000/svg" width="32" height="32" viewBox="0 0 32 32">
<title>Label</title>
<path d="M19.13 29.148l-17.17-17.161v-0.238l1.192-8.342v-0.358h0.358l8.347-1.192h0.238l0.119 0.119 17.17 17.4-10.016 10.011-0.238-0.238zM12.453 0.545l-10.493 1.43-1.431 10.488 18.84 18.83 11.924-11.918-18.84-18.83zM13.309 11.203l0.922-0.932 9.579 9.471-0.922 0.932-9.579-9.471zM10.145 14.446l0.922-0.932 9.579 9.471-0.922 0.932-9.579-9.471zM9.114 7.219c-0.835 0-1.431 0.596-1.431 1.43s0.596 1.43 1.431 1.43c0.835 0 1.431-0.596 1.431-1.43 0-0.715-0.715-1.43-1.431-1.43z"></path>
</svg>
