<!-- Generated by IcoMoon.io -->
<svg version="1.1" xmlns="http://www.w3.org/2000/svg" width="32" height="32" viewBox="0 0 32 32">
<title>Latitude</title>
<path d="M16 0c-8.862 0-16 7.138-16 16s7.138 16 16 16c8.862 0 16-7.138 16-16s-7.138-16-16-16zM16 30.769c-7.508 0-13.785-5.662-14.646-12.923 2.585 1.6 8.615 2.462 14.646 2.462s12.062-0.862 14.646-2.462c-0.862 7.262-7.138 12.923-14.646 12.923zM16 19.077c-9.723 0-14.769-1.969-14.769-3.077 0-8.123 6.646-14.769 14.769-14.769s14.769 6.646 14.769 14.769c0 1.108-5.046 3.077-14.769 3.077zM12.431 11.815l0.123 1.231c0.738 0 1.477-0.123 2.338-0.123v-1.231c-0.862 0-1.723 0-2.462 0.123zM3.077 13.292l0.369 1.108c0.615-0.246 1.354-0.369 2.215-0.615l-0.246-1.231c-0.862 0.369-1.6 0.492-2.338 0.738zM7.754 12.308l0.123 1.231c0.738-0.123 1.477-0.246 2.338-0.369l-0.123-1.231c-0.862 0.123-1.6 0.246-2.338 0.369zM28.431 14.523l0.369-1.108c-0.615-0.369-1.354-0.492-2.215-0.738l-0.246 1.231c0.738 0.123 1.477 0.369 2.092 0.615zM17.108 12.923c0.738 0 1.6 0 2.338 0.123l0.123-1.231c-0.738 0-1.6-0.123-2.338-0.123l-0.123 1.231zM21.785 13.169c0.738 0.123 1.6 0.246 2.215 0.246l0.123-1.231c-0.615 0-1.477-0.123-2.215-0.246l-0.123 1.231z"></path>
</svg>
