<!-- Generated by IcoMoon.io -->
<svg version="1.1" xmlns="http://www.w3.org/2000/svg" width="32" height="32" viewBox="0 0 32 32">
<title>LayerProperties</title>
<path d="M3.547 8.331l10.606-5.209 10.606 5.209-10.606 5.209-10.606-5.209zM14.154 1.952l-13.008 6.379 13.008 6.379 13.008-6.379-13.008-6.379zM1.146 17.535l13.008 6.379 1.201-0.532-0.3-0.213-0.1-0.744-0.8 0.319-10.606-5.209 1.901-0.957-1.201-0.638-3.102 1.595zM1.146 13.282l13.008 6.379 2.602-1.276-0.4-0.957-2.201 1.063-10.606-5.209 1.901-0.957-1.201-0.532-3.102 1.488zM23.926 17.884c-1.684 0-3.087 1.491-3.087 3.28s1.403 3.28 3.087 3.28c1.684 0 3.087-1.491 3.087-3.28 0-1.888-1.31-3.28-3.087-3.28zM23.926 23.35c-1.123 0-2.152-0.994-2.152-2.286 0-1.193 0.935-2.286 2.152-2.286s2.152 0.994 2.152 2.286c0 1.292-0.935 2.286-2.152 2.286zM31.41 20.269l-0.094-0.596-1.684-0.596c-0.094-0.199-0.187-0.398-0.281-0.696l0.842-1.789-0.374-0.497c-0.281-0.398-0.655-0.795-1.029-1.093l-0.468-0.398-1.684 0.894c-0.187-0.099-0.374-0.199-0.655-0.298l-0.561-1.789-0.655-0.199c-0.281 0-0.468 0-0.748 0s-0.468 0-0.748 0l-0.561 0.099-0.187 0.596-0.561 1.193c-0.187 0.099-0.374 0.199-0.655 0.298l-1.684-0.894-0.468 0.398c-0.374 0.298-0.748 0.696-1.029 1.093l-0.374 0.497 0.842 1.789c-0.094 0.199-0.187 0.398-0.281 0.696l-1.123 0.398-0.561 0.298-0.094 0.696c0 0.298 0 0.497 0 0.795s0 0.497 0 0.795l0.094 0.696 1.684 0.596c0.094 0.199 0.187 0.398 0.281 0.696l-0.561 1.193-0.281 0.497 0.374 0.497c0.281 0.398 0.655 0.795 1.029 1.093l0.468 0.398 1.684-0.894c0.187 0.099 0.374 0.199 0.655 0.298l0.561 1.789 0.561 0.099c0.281 0 0.468 0 0.748 0s0.468 0 0.748 0l0.561-0.099 0.561-1.789c0.187-0.099 0.374-0.199 0.655-0.298l1.684 0.894 0.468-0.398c0.374-0.298 0.748-0.696 1.029-1.093l0.374-0.497-0.842-1.789c0.094-0.199 0.187-0.398 0.281-0.696l1.684-0.596 0.094-0.596c0-0.298 0-0.497 0-0.795s0.281-0.596 0.281-0.894zM30.475 21.859l-1.59 0.596c-0.094 0.497-0.281 0.994-0.561 1.391l0.748 1.69c-0.281 0.398-0.561 0.696-0.935 0.994l-1.59-0.795c-0.374 0.298-0.842 0.497-1.31 0.596l-0.561 1.69c-0.187 0-0.468 0-0.655 0s-0.468 0-0.655 0l-0.561-1.69c-0.468-0.099-0.935-0.298-1.31-0.596l-1.497 0.795c-0.374-0.298-0.655-0.596-0.935-0.994l0.748-1.69c-0.281-0.398-0.468-0.894-0.561-1.391l-1.59-0.596c0-0.199 0-0.497 0-0.696s0-0.497 0-0.696l1.59-0.596c0.094-0.497 0.281-0.994 0.561-1.391l-0.748-1.69c0.281-0.398 0.561-0.696 0.935-0.994l1.497 0.795c0.374-0.298 0.842-0.497 1.31-0.596l0.561-1.69c0.187 0 0.468 0 0.655 0s0.468 0 0.655 0l0.561 1.69c0.468 0.099 0.935 0.298 1.31 0.596l1.59-0.795c0.374 0.298 0.655 0.596 0.935 0.994l-0.748 1.69c0.281 0.398 0.468 0.894 0.561 1.391l1.59 0.596c0 0.199 0 0.497 0 0.696s0 0.398 0 0.696z"></path>
</svg>
