<!-- Generated by IcoMoon.io -->
<svg version="1.1" xmlns="http://www.w3.org/2000/svg" width="32" height="32" viewBox="0 0 32 32">
<title>Locked</title>
<path d="M24.648 8.945c0-2.019-0.618-3.801-1.853-5.108-0.741-0.95-1.853-1.782-1.977-1.782-1.359-0.95-2.965-1.425-4.695-1.425-4.695 0-8.525 3.682-8.525 8.196v2.376h-4.077v20.193h24.957v-20.193h-3.83v-2.257zM8.711 10.845v-1.9c0-3.92 3.336-7.127 7.413-7.127s7.413 3.207 7.413 7.127v2.376h-14.826v-0.475zM26.996 12.27h0.371v18.055h-22.61v-18.055h22.239zM18.718 19.397c0-1.307-1.112-2.494-2.595-2.494-1.359 0-2.595 1.069-2.595 2.494 0 1.069 0.741 1.901 1.73 2.257l0.247 0.119v3.801h1.112v-3.801l0.247-0.119c1.112-0.356 1.853-1.188 1.853-2.257z"></path>
</svg>
