<!-- Generated by IcoMoon.io -->
<svg version="1.1" xmlns="http://www.w3.org/2000/svg" width="159" height="32" viewBox="0 0 159 32">
<title>LogoHexagon</title>
<path d="M15.016 30.362v-11.049h-10.404v11.049h-4.614l0.001-25.358h4.613v9.91h10.404v-9.91h4.614v25.358h-4.614z"></path>
<path d="M24.446 30.362v-25.358h17.306v4.186h-12.7v5.903h11.089v4.147h-11.089v6.936h12.698v4.186h-17.305z"></path>
<path d="M60.39 30.362l-5.679-9.226-5.69 9.226h-4.967l7.971-12.912-7.902-12.446h5.039l5.687 8.876 5.511-8.876h5.007l-7.797 12.486 7.898 12.872h-5.079z"></path>
<path d="M83.772 30.362l-1.648-4.863h-10.081l-1.644 4.863h-4.649l8.903-25.358h5.041l8.903 25.358h-4.825zM77.082 10.658l-3.611 10.697h7.223l-3.611-10.697z"></path>
<path d="M109.379 30.362l-2.674-2.791c-0.754 1.471-3.182 3.221-6.367 3.257-2.928 0.035-5.543-0.713-7.547-2.827-2.641-2.752-3.288-6.151-3.288-10.298s0.539-7.437 3.29-10.189c1.932-1.931 4.827-2.974 7.546-2.974 3.114 0 5.793 1.149 7.511 2.901 1.254 1.283 2.18 2.899 2.324 5.116h-4.724c-0.072-1.005-0.566-1.678-1.105-2.329-0.893-1.038-2.287-1.539-4.039-1.539-1.47 0-3.156 0.646-4.154 1.715-1.748 1.825-1.963 4.975-1.963 7.297 0 2.326 0.249 5.58 2 7.405 1.007 1.069 2.648 1.61 4.118 1.61 1.64 0 2.929-0.574 3.791-1.469 1.352-1.43 1.643-3.001 1.643-4.937h-6.044v-3.828h10.515v13.878h-0.83z"></path>
<path d="M131.733 27.967c-1.931 1.931-4.577 2.86-7.296 2.86-2.71 0-5.361-0.929-7.294-2.86-2.755-2.756-3.22-6.117-3.22-10.265s0.465-7.547 3.22-10.298c1.933-1.931 4.584-2.864 7.294-2.864 2.719 0 5.364 0.933 7.296 2.864 2.753 2.751 3.222 6.15 3.222 10.298s-0.468 7.509-3.222 10.265zM128.45 10.405c-1.005-1.069-2.547-1.681-4.013-1.681-1.459 0-3.008 0.611-4.004 1.681-1.747 1.825-1.825 4.975-1.825 7.297 0 2.326 0.078 5.437 1.825 7.261 0.996 1.076 2.544 1.681 4.004 1.681 1.466 0 3.008-0.605 4.013-1.681 1.749-1.824 1.824-4.935 1.824-7.261-0.001-2.322-0.076-5.472-1.824-7.297z"></path>
<path d="M154.001 30.362l-10.979-17.416v17.416h-4.543v-25.358h4.898l10.836 17.166v-17.166h4.542v25.358h-4.753z"></path>
</svg>
