<!-- Generated by IcoMoon.io -->
<svg version="1.1" xmlns="http://www.w3.org/2000/svg" width="27" height="32" viewBox="0 0 27 32">
<title>LogoHexagon-bug</title>
<path d="M13.004 16.744v6.642h-3.419l-1.994-3.519zM4.324 16.13l-3.69 6.394v-12.909zM13.004 2.362v13.653l-5.725 3.303-2.013-3.554zM4.904 15.127l-3.722-6.57 11.273-6.511zM4.687 16.768l1.728 3.051-5.234 3.021zM6.726 20.367l1.71 3.019h-6.938zM13.004 24.018v5.403l-3.061-5.403zM18.704 23.386l7.484-12.832v12.832zM25.141 24.018l-10.26 5.926 3.454-5.926zM14.001 23.386v-7.217l11.693-6.751-8.145 13.968zM14.001 29.468v-5.45h3.177zM14.001 15.437v-15.436l-13.995 8.083-0.006 15.934h8.794l4.521 7.982 13.873-8.011v-16.165l-13.187 7.614z"></path>
</svg>
