<!-- Generated by IcoMoon.io -->
<svg version="1.1" xmlns="http://www.w3.org/2000/svg" width="32" height="32" viewBox="0 0 32 32">
<title>Longitude</title>
<path d="M32 16c0-8.862-7.138-16-16-16s-16 7.138-16 16c0 8.862 7.138 16 16 16s16-7.138 16-16zM1.231 16c0-7.508 5.662-13.785 12.923-14.646-1.6 2.585-2.462 8.615-2.462 14.646s0.862 12.062 2.462 14.646c-7.262-0.862-12.923-7.138-12.923-14.646zM12.923 16c0-9.723 1.969-14.769 3.077-14.769 8.123 0 14.769 6.646 14.769 14.769s-6.646 14.769-14.769 14.769c-1.108 0-3.077-5.046-3.077-14.769zM20.185 12.431l-1.231 0.123c0 0.738 0.123 1.477 0.123 2.338h1.231c0-0.862 0-1.723-0.123-2.462zM18.708 3.077l-1.108 0.369c0.246 0.615 0.369 1.354 0.615 2.215l1.231-0.246c-0.369-0.862-0.492-1.6-0.738-2.338zM19.692 7.754l-1.231 0.123c0.123 0.738 0.246 1.477 0.369 2.338l1.231-0.123c-0.123-0.862-0.246-1.6-0.369-2.338zM17.477 28.431l1.108 0.369c0.369-0.615 0.492-1.354 0.738-2.215l-1.231-0.246c-0.123 0.738-0.369 1.477-0.615 2.092zM19.077 17.108c0 0.738 0 1.6-0.123 2.338l1.231 0.123c0-0.738 0.123-1.6 0.123-2.338zM18.831 21.785c-0.123 0.738-0.246 1.6-0.246 2.215l1.231 0.123c0-0.615 0.123-1.477 0.246-2.215z"></path>
</svg>
