<!-- Generated by IcoMoon.io -->
<svg version="1.1" xmlns="http://www.w3.org/2000/svg" width="32" height="32" viewBox="0 0 32 32">
<title>LongLat</title>
<path d="M16 0c-8.862 0-16 7.138-16 16s7.138 16 16 16c8.862 0 16-7.138 16-16s-7.138-16-16-16zM16 30.769c-7.508 0-13.785-5.662-14.646-12.923 2.585 1.6 8.615 2.462 14.646 2.462 2.525 0 5.049-0.151 7.321-0.444 3.155-0.407 5.822-1.087 7.325-2.018-0.862 7.262-7.138 12.923-14.646 12.923zM16 19.077c-9.723 0-14.769-1.969-14.769-3.077 0-8.123 6.646-14.769 14.769-14.769s14.769 6.646 14.769 14.769c0 0.682-1.911 1.69-5.648 2.364-2.335 0.422-5.382 0.713-9.122 0.713zM12.431 11.815l0.123 1.231c0.738 0 1.477-0.123 2.338-0.123v-1.231c-0.862 0-1.723 0-2.462 0.123zM28.431 14.523l0.369-1.108c-0.615-0.369-1.354-0.492-2.215-0.738l-0.246 1.231c0.738 0.123 1.477 0.369 2.092 0.615zM17.108 12.923c0.738 0 1.6 0 2.338 0.123l0.123-1.231c-0.738 0-1.6-0.123-2.338-0.123l-0.123 1.231zM21.785 13.169c0.738 0.123 1.6 0.246 2.215 0.246l0.123-1.231c-0.615 0-1.477-0.123-2.215-0.246l-0.123 1.231zM16 0c-8.862 0-16 7.138-16 16s7.138 16 16 16c8.862 0 16-7.138 16-16s-7.138-16-16-16zM16 30.769c-7.508 0-13.785-5.662-14.646-12.923 2.585 1.6 8.615 2.462 14.646 2.462 2.525 0 5.049-0.151 7.321-0.444 3.155-0.407 5.822-1.087 7.325-2.018-0.862 7.262-7.138 12.923-14.646 12.923zM16 19.077c-9.723 0-14.769-1.969-14.769-3.077 0-8.123 6.646-14.769 14.769-14.769s14.769 6.646 14.769 14.769c0 0.682-1.911 1.69-5.648 2.364-2.335 0.422-5.382 0.713-9.122 0.713zM12.431 11.815l0.123 1.231c0.738 0 1.477-0.123 2.338-0.123v-1.231c-0.862 0-1.723 0-2.462 0.123zM3.077 13.292l0.369 1.108c0.615-0.246 1.354-0.369 2.215-0.615l-0.246-1.231c-0.862 0.369-1.6 0.492-2.338 0.738zM7.754 12.308l0.123 1.231c0.738-0.123 1.477-0.246 2.338-0.369l-0.123-1.231c-0.862 0.123-1.6 0.246-2.338 0.369zM28.431 14.523l0.369-1.108c-0.615-0.369-1.354-0.492-2.215-0.738l-0.246 1.231c0.738 0.123 1.477 0.369 2.092 0.615zM21.785 13.169c0.738 0.123 1.6 0.246 2.215 0.246l0.123-1.231c-0.615 0-1.477-0.123-2.215-0.246zM31.949 15.913c0-8.862-7.138-16-16-16s-16 7.138-16 16c0 8.862 7.138 16 16 16s16-7.138 16-16zM1.18 15.913c0-7.508 5.662-13.785 12.923-14.646-1.6 2.585-2.462 8.615-2.462 14.646 0 2.525 0.151 5.049 0.444 7.321 0.407 3.155 1.087 5.822 2.018 7.325-7.262-0.862-12.923-7.138-12.923-14.646zM12.872 15.913c0-9.723 1.969-14.769 3.077-14.769 8.123 0 14.769 6.646 14.769 14.769s-6.646 14.769-14.769 14.769c-0.682 0-1.69-1.911-2.364-5.648-0.421-2.335-0.713-5.382-0.713-9.122zM20.134 12.344l-1.231 0.123c0 0.738 0.123 1.477 0.123 2.338h1.231c0-0.862 0-1.723-0.123-2.462zM18.657 2.99l-1.108 0.369c0.246 0.615 0.369 1.354 0.615 2.215l1.231-0.246c-0.369-0.862-0.492-1.6-0.738-2.338zM19.642 7.667l-1.231 0.123c0.123 0.738 0.246 1.477 0.369 2.338l1.231-0.123c-0.123-0.862-0.246-1.6-0.369-2.338zM17.426 28.344l1.108 0.369c0.369-0.615 0.492-1.354 0.738-2.215l-1.231-0.246c-0.123 0.738-0.369 1.477-0.615 2.092zM19.026 17.021c0 0.738 0 1.6-0.123 2.338l1.231 0.123c0-0.738 0.123-1.6 0.123-2.338zM18.78 21.697c-0.123 0.738-0.246 1.6-0.246 2.215l1.231 0.123c0-0.615 0.123-1.477 0.246-2.215z"></path>
</svg>
