<!-- Generated by IcoMoon.io -->
<svg version="1.1" xmlns="http://www.w3.org/2000/svg" width="32" height="32" viewBox="0 0 32 32">
<title>Rectangle</title>
<path d="M25.846 4.923h-19.692v-2.462h-6.154v6.154h2.462v14.769h-2.462v6.154h6.154v-2.462h19.692v2.462h6.154v-6.154h-2.462v-14.769h2.462v-6.154h-6.154v2.462zM1.231 7.385v-3.692h3.692v3.692h-3.692zM4.923 28.308h-3.692v-3.692h3.692v3.692zM25.846 25.846h-19.692v-2.462h-2.462v-14.769h2.462v-2.462h19.692v2.462h2.462v14.769h-2.462v2.462zM30.769 24.615v3.692h-3.692v-3.692h3.692zM27.077 3.692h3.692v3.692h-3.692v-3.692z"></path>
</svg>
