<!-- Generated by IcoMoon.io -->
<svg version="1.1" xmlns="http://www.w3.org/2000/svg" width="32" height="32" viewBox="0 0 32 32">
<title>RoutePim</title>
<path d="M9.382 6.97c-1.964 0-3.564 1.6-3.564 3.564s1.6 3.564 3.564 3.564c1.139 0 2.158-0.545 2.812-1.382l7.018 3.697c-0.109 0.339-0.158 0.691-0.158 1.067 0 1.964 1.6 3.564 3.564 3.564s3.564-1.6 3.564-3.564c0-1.964-1.6-3.564-3.564-3.564-1.273 0-2.388 0.667-3.018 1.673l-6.921-3.649c0.182-0.424 0.279-0.897 0.279-1.394s-0.097-0.97-0.279-1.394l6.921-3.649c0.63 1.006 1.745 1.673 3.018 1.673 1.964 0 3.564-1.6 3.564-3.564s-1.6-3.564-3.564-3.564c-1.964 0-3.564 1.6-3.564 3.564 0 0.376 0.061 0.727 0.158 1.067l-7.006 3.673c-0.655-0.848-1.673-1.382-2.824-1.382zM22.618 14.836c1.467 0 2.655 1.188 2.655 2.655s-1.188 2.655-2.655 2.655c-1.467 0-2.655-1.188-2.655-2.655s1.188-2.655 2.655-2.655zM22.618 0.933c1.467 0 2.655 1.188 2.655 2.655s-1.188 2.655-2.655 2.655c-1.467 0-2.655-1.188-2.655-2.655s1.188-2.655 2.655-2.655zM9.382 13.188c-1.467 0-2.655-1.188-2.655-2.655s1.188-2.655 2.655-2.655c1.467 0 2.655 1.188 2.655 2.655s-1.188 2.655-2.655 2.655zM12.061 26.182c0 0.824-0.279 1.455-0.848 1.903-0.558 0.448-1.37 0.667-2.412 0.667h-0.958v3.2h-0.945v-8.145h2.109c2.036 0 3.055 0.788 3.055 2.376zM7.842 27.939h0.849c0.836 0 1.442-0.133 1.818-0.412 0.376-0.267 0.558-0.703 0.558-1.309 0-0.533-0.182-0.945-0.533-1.2s-0.909-0.4-1.649-0.4h-1.055v3.321zM13.77 31.951v-8.145h0.945v8.145h-0.945zM20.558 31.951l-2.764-7.224h-0.049c0.049 0.57 0.073 1.248 0.073 2.036v5.188h-0.861v-8.145h1.43l2.57 6.727h0.049l2.606-6.727h1.418v8.145h-0.945v-5.248c0-0.606 0.024-1.261 0.073-1.964h-0.049l-2.788 7.212h-0.764z"></path>
</svg>
