<!-- Generated by IcoMoon.io -->
<svg version="1.1" xmlns="http://www.w3.org/2000/svg" width="32" height="32" viewBox="0 0 32 32">
<title>Select</title>
<path d="M1.727 1.727h1.427v-1.427h-2.855v2.855h1.427zM0.3 31.7h2.855v-1.427h-1.427v-1.427h-1.427zM0.3 6.009h1.427v2.855h-1.427v-2.855zM0.3 11.718h1.427v2.855h-1.427v-2.855zM0.3 17.427h1.427v2.855h-1.427v-2.855zM0.3 23.136h1.427v2.855h-1.427v-2.855zM28.845 31.7h2.855v-2.855h-1.427v1.427h-1.427zM31.7 0.3h-2.855v1.427h1.427v1.427h1.427zM30.273 23.136h1.427v2.855h-1.427v-2.855zM30.273 17.427h1.427v2.855h-1.427v-2.855zM30.273 11.718h1.427v2.855h-1.427v-2.855zM30.273 6.009h1.427v2.855h-1.427v-2.855zM6.009 30.273h2.855v1.427h-2.855v-1.427zM11.718 30.273h2.855v1.427h-2.855v-1.427zM17.427 30.273h2.855v1.427h-2.855v-1.427zM23.136 30.273h2.855v1.427h-2.855v-1.427zM6.009 0.3h2.855v1.427h-2.855v-1.427zM11.718 0.3h2.855v1.427h-2.855v-1.427zM17.427 0.3h2.855v1.427h-2.855v-1.427zM23.136 0.3h2.855v1.427h-2.855v-1.427z"></path>
</svg>
