<!-- Generated by IcoMoon.io -->
<svg version="1.1" xmlns="http://www.w3.org/2000/svg" width="32" height="32" viewBox="0 0 32 32">
<title>Sun</title>
<path d="M7.287 15.947c0 4.752 3.908 8.66 8.66 8.66s8.66-3.908 8.66-8.66c0-4.752-3.908-8.66-8.66-8.66s-8.66 3.908-8.66 8.66zM15.947 9.399c3.591 0 6.548 2.957 6.548 6.548s-2.957 6.548-6.548 6.548c-3.591 0-6.548-2.957-6.548-6.548s2.957-6.548 6.548-6.548zM14.891 0h2.112v4.224h-2.112v-4.224zM14.891 27.776h2.112v4.224h-2.112v-4.224zM9.146 6.324l-2.112-3.658 1.829-1.056 2.112 3.658-1.829 1.056zM20.953 26.667l1.829-1.056 2.112 3.659-1.829 1.056-2.112-3.659zM6.324 9.146l-1.056 1.829-3.659-2.112 1.056-1.829 3.659 2.112zM26.668 20.953l3.658 2.113-1.057 1.829-3.658-2.113 1.057-1.829zM0 14.891h4.224v2.112h-4.224v-2.112zM27.776 14.891h4.224v2.112h-4.224v-2.112zM5.191 20.912l1.056 1.829-3.659 2.112-1.056-1.829 3.659-2.112zM30.32 8.903l-3.659 2.111-1.055-1.83 3.659-2.111 1.055 1.83zM10.974 26.623l-2.112 3.658-1.829-1.056 2.112-3.658 1.829 1.056zM20.914 5.19l2.114-3.657 1.829 1.057-2.114 3.657-1.829-1.057z"></path>
</svg>
