<!-- Generated by IcoMoon.io -->
<svg version="1.1" xmlns="http://www.w3.org/2000/svg" width="32" height="32" viewBox="0 0 32 32">
<title>Table</title>
<path d="M30.084 0.3h-28.168c-0.885 0-1.616 0.731-1.616 1.616v28.168c0 0.885 0.731 1.616 1.616 1.616h28.168c0.885 0 1.616-0.731 1.616-1.616v-28.168c0-0.904-0.712-1.616-1.616-1.616zM1.916 1.762h28.168c0.096 0 0.154 0.077 0.154 0.154v6.176h-28.476v-6.176c0-0.096 0.058-0.154 0.154-0.154zM22.773 9.555v5.734h-6.041v-5.734h6.041zM15.269 15.269h-6.041v-5.734h6.041v5.734zM7.765 15.269h-6.003v-5.734h6.003v5.734zM7.765 16.731v5.984h-6.003v-5.984h6.003zM9.227 16.731h6.041v5.984h-6.041v-5.984zM15.269 24.177v6.061h-6.041v-6.061h6.041zM16.731 24.177h6.041v6.061h-6.041v-6.061zM16.731 22.715v-5.984h6.041v5.984h-6.041zM24.235 16.731h6.003v5.984h-6.003v-5.984zM24.235 15.269v-5.734h6.003v5.734h-6.003zM1.762 30.084v-5.907h6.003v6.061h-5.849c-0.096 0-0.154-0.058-0.154-0.154zM30.084 30.238h-5.849v-6.061h6.003v5.907c0 0.096-0.058 0.154-0.154 0.154z"></path>
</svg>
