<!-- Generated by IcoMoon.io -->
<svg version="1.1" xmlns="http://www.w3.org/2000/svg" width="32" height="32" viewBox="0 0 32 32">
<title>Visible</title>
<path d="M0.644 15.248l-0.644 0.752 0.644 0.752c0.322 0.322 6.98 7.195 15.356 7.195s15.033-6.98 15.356-7.195l0.644-0.752-0.644-0.752c-0.322-0.322-6.98-7.195-15.356-7.195s-15.033 6.872-15.356 7.195zM16.215 13.638c1.289 0.107 2.148 1.181 2.040 2.47-0.107 1.181-1.181 2.148-2.362 2.040-1.289-0.107-2.148-1.181-2.040-2.47 0-1.181 1.181-2.148 2.362-2.040zM19.114 21.476c1.718-0.966 3.007-2.792 3.114-4.94 0.107-1.074-0.107-2.148-0.537-3.114-0.215 0.322-0.644 0.537-1.074 0.537-0.644 0-1.181-0.644-1.074-1.289 0-0.537 0.43-0.966 0.966-1.074-0.43-0.43-0.966-0.752-1.503-1.074 4.617 1.074 8.376 4.081 9.987 5.476-1.503 1.396-5.262 4.403-9.879 5.476zM12.886 10.524c-1.718 0.966-3.007 2.792-3.114 4.94-0.215 2.47 1.074 4.832 3.221 6.013-4.617-1.074-8.376-4.081-9.879-5.476 1.396-1.396 5.154-4.403 9.772-5.476z"></path>
</svg>
