<!-- Generated by IcoMoon.io -->
<svg version="1.1" xmlns="http://www.w3.org/2000/svg" width="32" height="32" viewBox="0 0 32 32">
<title>Warning</title>
<path d="M17.282 26.66h-2.563v-2.447h2.563v2.447zM16.466 22.582h-1.049l-0.582-7.107v-5.010h2.097v5.010l-0.466 7.107zM2.020 28.98c-0.004 0-0.009 0-0.014 0-0.552 0-1 0.448-1 1s0.448 1 1 1c0.005 0 0.010 0 0.015 0h27.96c0.004 0 0.009 0 0.014 0 0.552 0 1-0.448 1-1s-0.448-1-1-1c-0.005 0-0.010 0-0.015 0h0.001zM16.895 1.573l-1.789 0.895 13.98 27.959 1.789-0.895zM15.955 1.009c-0.374 0.020-0.692 0.242-0.847 0.559l-13.983 27.965c-0.067 0.13-0.106 0.284-0.106 0.447 0 0.552 0.448 1 1 1 0.389 0 0.727-0.222 0.892-0.547l13.983-27.965c0.071-0.134 0.112-0.292 0.112-0.46 0-0.552-0.448-1-1-1-0.018 0-0.036 0-0.054 0.001h0.002z"></path>
</svg>
