<!-- Generated by IcoMoon.io -->
<svg version="1.1" xmlns="http://www.w3.org/2000/svg" width="32" height="32" viewBox="0 0 32 32">
<title>World</title>
<path d="M16 0c-8.862 0-16 7.138-16 16s7.138 16 16 16c8.862 0 16-7.138 16-16s-7.138-16-16-16zM16 30.769c-8.123 0-14.769-6.646-14.769-14.769s6.646-14.769 14.769-14.769c8.123 0 14.769 6.646 14.769 14.769s-6.646 14.769-14.769 14.769zM16 0c-4.062 0-7.385 7.138-7.385 16s3.323 16 7.385 16c4.062 0 7.385-7.138 7.385-16s-3.323-16-7.385-16zM16 30.769c-3.446 0-6.154-6.646-6.154-14.769s2.708-14.769 6.154-14.769c3.446 0 6.154 6.646 6.154 14.769s-2.708 14.769-6.154 14.769zM0 16c0 4.062 7.138 7.385 16 7.385s16-3.323 16-7.385c0-4.062-7.138-7.385-16-7.385s-16 3.323-16 7.385zM30.769 16c0 3.446-6.646 6.154-14.769 6.154s-14.769-2.708-14.769-6.154c0-3.446 6.646-6.154 14.769-6.154s14.769 2.708 14.769 6.154z"></path>
</svg>
